<svg xmlns="http://www.w3.org/2000/svg" width="242" height="40" viewBox="0 0 242 40"><defs><style>.a{fill:#31353f;}</style></defs><path class="a" d="M349.358,123.217c-.3-.483-.623-.955-.967-1.411-.1-.146-.2-.283-.3-.431v.058a20.7,20.7,0,0,0-4.1-3.914c-.117-.084-.235-.167-.353-.249q-.645-.447-1.326-.847c-.217-.129-.435-.256-.658-.377-.251-.135-.5-.269-.762-.4-.422-.208-.851-.4-1.288-.586-.2-.082-.4-.157-.606-.233-.417-.158-.841-.305-1.271-.439-.143-.045-.283-.093-.428-.134-.536-.155-1.085-.284-1.639-.4-.147-.029-.291-.06-.438-.087q-.877-.164-1.78-.256c-.12-.013-.24-.021-.362-.032-.642-.056-1.29-.093-1.947-.093H148.551c-.658,0-1.3.037-1.946.093-.121.011-.244.02-.365.032q-.9.093-1.78.256c-.147.027-.291.058-.437.088-.546.112-1.085.24-1.615.392-.148.043-.292.091-.439.136-.436.134-.865.284-1.286.444-.2.076-.408.152-.609.236q-.659.273-1.293.588c-.257.127-.509.26-.758.4-.224.121-.443.249-.66.377q-.683.4-1.329.851c-.12.084-.242.168-.361.254a20.739,20.739,0,0,0-4.111,3.941v-.1c-.116.191-.24.367-.358.554h0c-.157.213-.309.428-.458.646-.283.408-.557.823-.806,1.252a26.675,26.675,0,0,1-11.109,9.563c4.6,2.007,8.529,5.892,12.032,11h0c.059.085.114.172.176.256h0c.173.256.351.5.522.761v-.1h0a20.69,20.69,0,0,0,4.11,3.939c.119.087.24.171.362.255q.645.448,1.327.85c.218.129.437.257.661.379.251.136.5.271.758.4q.635.313,1.293.587c.2.083.4.158.609.236.422.16.851.31,1.286.444.147.046.291.094.439.136.529.152,1.068.278,1.614.392.147.029.291.061.439.088q.877.164,1.779.256c.121.012.244.021.365.032.642.056,1.289.093,1.946.093H331.14c.657,0,1.3-.037,1.947-.093.121-.011.242-.019.362-.032q.9-.092,1.78-.256c.147-.027.291-.058.438-.088.554-.115,1.1-.243,1.639-.4.145-.041.284-.089.428-.134q.645-.2,1.271-.44c.2-.076.406-.151.6-.232.438-.181.867-.379,1.29-.586.257-.127.51-.261.761-.4.223-.122.443-.25.66-.379.453-.267.893-.548,1.322-.845q.179-.123.354-.249a20.7,20.7,0,0,0,4.1-3.914v.058c.066-.108.138-.207.2-.314.252-.328.494-.661.724-1,.118-.172.227-.35.339-.526.163-.261.334-.517.486-.785h0a26.553,26.553,0,0,1,10.981-9.387C356.478,131.492,352.718,127.921,349.358,123.217Z" transform="translate(-118.828 -113.392)"/></svg>