<svg xmlns="http://www.w3.org/2000/svg" width="92.726" height="41.974" viewBox="0 0 92.726 41.974"><defs><style>.a{fill:#f2f2f2;}.b{fill:none;stroke:#b2b2b2;stroke-linecap:round;stroke-miterlimit:10;stroke-width:1.2px;}</style></defs><g transform="translate(0.6 0.626)"><path class="a" d="M-1590.241,2074.95a13.7,13.7,0,0,0-9.6-9.062s-11.31-3.177-19.056-8.444c0,0-7.747-5.345-17.274-5.267,0,0-17.352-.31-22.232,1.316a3.488,3.488,0,0,0-1.549,1.472l-5.268,14.331s-.93,2.479-1.395,2.711a14.313,14.313,0,0,0-2.479,5.113c0,1.007-2.168,7.437,4.261,9.6l.36.023c-.815-5.515,2.371-11.736,9.561-11.736,7.717,0,10.818,7.144,9.323,12.906,9.8.143,22.287.092,31.839,0a9.746,9.746,0,0,1-.5-3.065,9.778,9.778,0,0,1,9.778-9.777,9.777,9.777,0,0,1,9.778,9.777,9.769,9.769,0,0,1-.413,2.806l.219,0s6.584-.156,6.584-4.183v-5.682S-1589,2075.415-1590.241,2074.95Zm-50.964-11.043a1.115,1.115,0,0,1-1.389,1.058c-4.524-1.209-9.538.052-14.148-.681a1.1,1.1,0,0,1-.766-1.35,12.744,12.744,0,0,1,3.464-6.052,1.048,1.048,0,0,1,.909-.277,2.917,2.917,0,0,1,.665-.306c3.065-.95,7.432-.242,10.516.415a1.119,1.119,0,0,1,.806,1.058A41.486,41.486,0,0,1-1641.2,2063.906Zm24.869,1.552a1.011,1.011,0,0,1-.6-.194,1.321,1.321,0,0,1-.88.2,160.3,160.3,0,0,0-18.637-.341,1.523,1.523,0,0,1-1.452-1.905,18.491,18.491,0,0,0,.06-5.453,1.3,1.3,0,0,1,1.264-1.437,1.306,1.306,0,0,1,.923-.239c3.094.263,6.222.26,9.122,1.467,2.673,1.113,5.124,3.124,7.926,3.814a1.317,1.317,0,0,1,1.053,1.131,1.493,1.493,0,0,1,.99.8,1.032,1.032,0,0,1,.227-.046A1.1,1.1,0,0,1-1616.336,2065.459Z" transform="translate(1679.83 -2052.153)"/><g transform="translate(10.38)"><path class="b" d="M-1663.916,2090.274a7.742,7.742,0,0,1-.213-1.811,9.778,9.778,0,0,1,9.778-9.778,9.779,9.779,0,0,1,9.778,9.778,8.618,8.618,0,0,1-.46,2.968" transform="translate(1668.726 -2055.763)"/><path class="b" d="M-1656.4,2065.36s1.007-8.212,4.88-8.444,12.316,0,12.316,0v8.753Z" transform="translate(1667.674 -2052.787)"/><path class="b" d="M-1633.267,2056.813v9.244h24.169s-7.747-8.108-16.809-9.244Z" transform="translate(1664.526 -2052.787)"/><path class="b" d="M-1659.269,2077.244s13.02-6.352,17.668,7.978h26.408s2.168-7.2,6.584-7.82" transform="translate(1668.065 -2055.377)"/><path class="b" d="M-1579.038,2077.754s-4.483.339-7.068-1.2a16.981,16.981,0,0,1-4.27-3.718s-.7-1.743.784-1.743a18.573,18.573,0,0,1,6.547.773" transform="translate(1658.712 -2054.724)"/><line class="b" x1="5.519" transform="translate(75.481 29.585)"/><g transform="translate(58.263 25.983)"><path class="b" d="M-1588.578,2088.946a6.718,6.718,0,0,1-6.716,6.718,6.717,6.717,0,0,1-6.716-6.718,6.717,6.717,0,0,1,6.716-6.717A6.717,6.717,0,0,1-1588.578,2088.946Z" transform="translate(1602.01 -2082.229)"/><path class="b" d="M-1591.631,2089.516a3.091,3.091,0,0,1-3.092,3.092,3.092,3.092,0,0,1-3.094-3.092,3.094,3.094,0,0,1,3.094-3.092A3.092,3.092,0,0,1-1591.631,2089.516Z" transform="translate(1601.439 -2082.8)"/></g><g transform="translate(7.658 25.983)"><path class="b" d="M-1647.153,2088.946a6.718,6.718,0,0,1-6.716,6.718,6.717,6.717,0,0,1-6.717-6.718,6.717,6.717,0,0,1,6.717-6.717A6.718,6.718,0,0,1-1647.153,2088.946Z" transform="translate(1660.586 -2082.229)"/><path class="b" d="M-1650.207,2089.516a3.091,3.091,0,0,1-3.091,3.092,3.093,3.093,0,0,1-3.094-3.092,3.094,3.094,0,0,1,3.094-3.092A3.092,3.092,0,0,1-1650.207,2089.516Z" transform="translate(1660.015 -2082.8)"/></g><path class="b" d="M-1645.786,2087.915c9.831.146,22.419.1,32.033,0a9.746,9.746,0,0,1-.5-3.065,9.778,9.778,0,0,1,9.778-9.777,9.777,9.777,0,0,1,9.778,9.777,9.769,9.769,0,0,1-.413,2.806l.219,0s6.585-.156,6.585-4.183v-5.682s-.7-2.375-1.937-2.839a13.7,13.7,0,0,0-9.6-9.062s-11.31-3.177-19.056-8.444c0,0-7.747-5.345-17.274-5.267,0,0-17.352-.31-22.232,1.316a3.488,3.488,0,0,0-1.549,1.472l-5.268,14.331s-.93,2.479-1.395,2.711a14.313,14.313,0,0,0-2.479,5.113c0,1.007-2.168,7.437,4.261,9.6" transform="translate(1669.45 -2052.153)"/></g><line class="b" x2="4.43" transform="translate(42.185 16.326)"/><line class="b" x2="4.43" transform="translate(33.7 16.326)"/><line class="b" x2="56.668" transform="translate(3.341 40.567)"/><line class="b" x2="25.607" transform="translate(63.798 40.748)"/><g transform="translate(0 4.592)"><line class="b" x2="3.198" transform="translate(1.797 23.259)"/><line class="b" x2="3.346" transform="translate(2.833 16.062)"/><line class="b" x2="3.874" transform="translate(5.225 7.074)"/><line class="b" x2="3.488" transform="translate(8.726)"/><line class="b" x2="5.579" transform="translate(0 2.559)"/></g></g></svg>