<svg xmlns="http://www.w3.org/2000/svg" width="111" height="111" viewBox="0 0 111 111">
  <g id="Group_3548" data-name="Group 3548" transform="translate(-226 -349)">
    <g id="Group_2563" data-name="Group 2563" transform="translate(226.5 349.5)">
      <g id="Rectangle_249" data-name="Rectangle 249" opacity="0">
        <rect id="Rectangle_278" data-name="Rectangle 278" width="110" height="110" fill="none" stroke="#b2b2b2" stroke-width="1"/>
      </g>
    </g>
    <g id="Bike" transform="translate(229.116 380.068)">
      <path id="Path_359" data-name="Path 359" d="M22.7,45.534c-3.941-2.384-8.514-3.843-12.892-1.605a2.8,2.8,0,0,0-.924.73,2.858,2.858,0,0,0-1.849.584C2.9,48.112,1.249,52.783,1.2,57.745a11.723,11.723,0,0,0,1.557,5.5,9.8,9.8,0,0,0,1.995,3.065,49.605,49.605,0,0,0,6.227,4.184c2.968,1.168,7.395.292,10.217-1.022a12.772,12.772,0,0,0,6.714-6.811,5.724,5.724,0,0,0,.243-1.508,3.305,3.305,0,0,0,.535-1.557C29.126,54.388,27.423,48.4,22.7,45.534ZM15.211,65.092a8.173,8.173,0,1,1,8.173-8.173A8.16,8.16,0,0,1,15.211,65.092Z" transform="translate(-0.908 -22.294)" fill="#f2f2f2"/>
      <path id="Path_360" data-name="Path 360" d="M157.217,37.2l.827,3.26-7.492,3.989-4.379.341-2.287-.876L143.4,41.87l4.184-2.238Z" transform="translate(-73.927 -19.409)" fill="#f2f2f2"/>
      <path id="Path_361" data-name="Path 361" d="M148.1,70.144c-.535-2.092-3.892-1.46-3.357.681.195.778.341,1.605.486,2.433a16.981,16.981,0,0,1,.341,2.092,1.722,1.722,0,0,0,1.557,1.8,1.688,1.688,0,0,0,1.8-1.557A25.9,25.9,0,0,0,148.1,70.144Z" transform="translate(-74.585 -35.666)" fill="#f2f2f2"/>
      <g id="Group_1160" data-name="Group 1160" transform="translate(0 0)">
        <g id="Group_1159" data-name="Group 1159">
          <g id="Group_1158" data-name="Group 1158">
            <path id="Path_362" data-name="Path 362" d="M141.113,68.545c.341,0,.73-1.265.924-1.119,1.411-.827,3.5-.827,4.233,2.578.584,2.822,3.5,4.476,6.519,4.768,5.206.535,8.173-3.892,8.465-8.417.146-2.189-.389-2.189,3.892-2.238a1.347,1.347,0,0,1,.632-.146c.973,0,1.216-1.07,1.119-.341.487.681.681,3.552.487,4.573-1.314,7.006-5.935,12.406-13.233,12.8a14.167,14.167,0,0,1-13.622-7.638c-.389-.778-1.654-4.67-1.508-5.4C138.146,67.28,139.605,68.545,141.113,68.545Z" transform="translate(-71.543 -32.85)" fill="#f2f2f2"/>
            <path id="Path_363" data-name="Path 363" d="M165.465,48.9c-.292-1.605-1.654-2.433-3.016-3.114a2.464,2.464,0,0,0-1.508-.73,1.6,1.6,0,0,0-.924-.195,8.193,8.193,0,0,0-2.335-.973,19.707,19.707,0,0,0-7.541-.195,3.909,3.909,0,0,0-2.287,1.557,1.82,1.82,0,0,0-.778.341c-.389.292-.73.535-1.07.827a3.225,3.225,0,0,0-1.557,1.557,14.369,14.369,0,0,0-1.119,1.557c-.243.438-.632.876-.973,1.362a1.221,1.221,0,0,0-.584,1.07,2.617,2.617,0,0,0-.146,1.605,1.758,1.758,0,0,0,1.557,1.362c3.843.195,6.276-4.525,9.73-5.595,2.773-.827,4.525.341,7.006,1.265a7.033,7.033,0,0,0,4.573.195A1.8,1.8,0,0,0,165.465,48.9Z" transform="translate(-72.979 -22.595)" fill="#f2f2f2"/>
            <g id="Group_1157" data-name="Group 1157">
              <path id="XMLID_28_" d="M49.5,13.538s4.33,1.265,3.357,5.06c0,0-1.7,3.795-5.157,1.995V13.1Z" transform="translate(-24.785 -7.034)" fill="#f2f2f2"/>
              <path id="XMLID_27_" d="M119.833,60.768,156.419,54.2s1.557.1,1.168,1.07c-.341.973-1.605,3.357-1.605,3.357s-.1.827-2.335,1.362c0,0-26.077,5.4-32.645,4.038C121.05,64.027,116.33,62.033,119.833,60.768Z" transform="translate(-61.16 -28.138)" fill="#f2f2f2"/>
              <path id="Path_364" data-name="Path 364" d="M141.36,24.6l-4.135,3.843-10.168,4.525-3.357,1.9,1.557,1.849,8.173,1.265,5.108-2.578s5.157-2.627,7.1-2.433a6.448,6.448,0,0,0,2.676-.1l.389-6.227Z" transform="translate(-63.811 -12.939)" fill="#f2f2f2"/>
              <path id="XMLID_26_" d="M158.1,30.373s11.092-2.433,18.731,6.325c0,0,1.265,1.362.195,1.362-.73,0-5.643-1.9-11.336-1.557" transform="translate(-81.475 -15.744)" fill="#f2f2f2"/>
              <path id="XMLID_25_" d="M114.2,39l1.557,5.838a3.015,3.015,0,0,0,2.87,1.557c2.141-.1,11.968-1.265,11.968-1.265" transform="translate(-58.933 -20.333)" fill="#f2f2f2"/>
              <path id="XMLID_24_" d="M158.3,23l8.757-1.8a2.17,2.17,0,0,1,1.557.924c.73.924,1.265,1.7,1.265,1.7a1.356,1.356,0,0,1-.924,1.46,17.722,17.722,0,0,1-2.335.73" transform="translate(-81.578 -11.193)" fill="#f2f2f2"/>
              <path id="XMLID_23_" d="M115.3,24.792c14.06,6.568,19.022-2.092,19.022-2.092s3.5.632,1.265,4.622c0,0-3.7,10.557-19.752,3.357" transform="translate(-59.497 -11.963)" fill="#f2f2f2"/>
              <path id="XMLID_22_" d="M94.228,22.34a16.565,16.565,0,0,0-14.4-10.363S71.9,11.248,71.8,18.3a5.123,5.123,0,0,0,3.941,4.67H82.6a9.164,9.164,0,0,1,3.7.438C87.66,24.043,95.493,27.546,94.228,22.34Z" transform="translate(-37.161 -6.446)" fill="#f2f2f2"/>
              <g id="XMLID_1_">
                <path id="XMLID_21_" d="M140.6,69.36a13.978,13.978,0,0,0,27.731-2.481,14.23,14.23,0,0,0-.681-4.379" transform="translate(-72.489 -32.4)" fill="none" stroke="#b2b2b2" stroke-linecap="round" stroke-miterlimit="10" stroke-width="1.2"/>
                <path id="XMLID_20_" d="M166.215,48.587A13.953,13.953,0,0,0,141.5,52.527" transform="translate(-72.951 -22.233)" fill="none" stroke="#b2b2b2" stroke-linecap="round" stroke-miterlimit="10" stroke-width="1.2"/>
                <circle id="XMLID_19_" cx="7.687" cy="7.687" r="7.687" transform="translate(6.276 26.743)" fill="none" stroke="#b2b2b2" stroke-linecap="round" stroke-miterlimit="10" stroke-width="1.2"/>
                <circle id="XMLID_18_" cx="13.963" cy="13.963" r="13.963" transform="translate(0 20.467)" fill="none" stroke="#b2b2b2" stroke-linecap="round" stroke-miterlimit="10" stroke-width="1.2"/>
                <path id="XMLID_17_" d="M166.633,56.722a7.324,7.324,0,0,0-3.843-1.022A7.529,7.529,0,0,0,157,58.376" transform="translate(-80.91 -28.908)" fill="none" stroke="#b2b2b2" stroke-linecap="round" stroke-miterlimit="10" stroke-width="1.2"/>
                <path id="XMLID_16_" d="M153.2,69.976a7.677,7.677,0,0,0,15.325-.681,8.954,8.954,0,0,0-.243-1.995" transform="translate(-78.959 -34.865)" fill="none" stroke="#b2b2b2" stroke-linecap="round" stroke-miterlimit="10" stroke-width="1.2"/>
                <path id="XMLID_15_" d="M119.833,60.768,156.419,54.2s1.557.1,1.168,1.07c-.341.973-1.605,3.357-1.605,3.357s-.1.827-2.335,1.362c0,0-26.077,5.4-32.645,4.038C121.05,64.027,116.33,62.033,119.833,60.768Z" transform="translate(-61.16 -28.138)" fill="none" stroke="#b2b2b2" stroke-linecap="round" stroke-miterlimit="10" stroke-width="1.2"/>
                <path id="XMLID_14_" d="M96.771,57.6s-1.362-2.092-2.87-2.335c-1.557-.292-14.6-.1-14.6-.1a1.834,1.834,0,0,1-2.433-1.605C76.532,51.325,75.9,46.8,75.9,46.8" transform="translate(-39.266 -24.338)" fill="none" stroke="#b2b2b2" stroke-linecap="round" stroke-miterlimit="10" stroke-width="1.2"/>
                <line id="XMLID_13_" x2="1.168" y2="8.173" transform="translate(41.84 22.559)" fill="none" stroke="#b2b2b2" stroke-linecap="round" stroke-miterlimit="10" stroke-width="1.2"/>
                <line id="XMLID_12_" x2="1.168" y2="8.173" transform="translate(46.51 22.559)" fill="none" stroke="#b2b2b2" stroke-linecap="round" stroke-miterlimit="10" stroke-width="1.2"/>
                <path id="XMLID_11_" d="M94.228,22.34a16.565,16.565,0,0,0-14.4-10.363S71.9,11.248,71.8,18.3a5.123,5.123,0,0,0,3.941,4.67H82.6a9.164,9.164,0,0,1,3.7.438C87.66,24.043,95.493,27.546,94.228,22.34Z" transform="translate(-37.161 -6.446)" fill="none" stroke="#b2b2b2" stroke-linecap="round" stroke-miterlimit="10" stroke-width="1.2"/>
                <path id="XMLID_10_" d="M61.7,1.832S53.869-2.06,48.517,4.167L29.3,35.061" transform="translate(-15.337 -0.631)" fill="none" stroke="#b2b2b2" stroke-linecap="round" stroke-miterlimit="10" stroke-width="1.2"/>
                <path id="XMLID_9_" d="M49.5,13.538s4.33,1.265,3.357,5.06c0,0-1.7,3.795-5.157,1.995V13.1Z" transform="translate(-24.785 -7.034)" fill="none" stroke="#b2b2b2" stroke-linecap="round" stroke-miterlimit="10" stroke-width="1.2"/>
                <path id="XMLID_8_" d="M115.3,24.792c14.06,6.568,19.022-2.092,19.022-2.092s3.5.632,1.265,4.622c0,0-3.7,10.557-19.752,3.357" transform="translate(-59.497 -11.963)" fill="none" stroke="#b2b2b2" stroke-linecap="round" stroke-miterlimit="10" stroke-width="1.2"/>
                <path id="XMLID_7_" d="M158.1,30.373s11.092-2.433,18.731,6.325c0,0,1.265,1.362.195,1.362-.73,0-5.643-1.9-11.336-1.557" transform="translate(-81.475 -15.744)" fill="none" stroke="#b2b2b2" stroke-linecap="round" stroke-miterlimit="10" stroke-width="1.2"/>
                <line id="XMLID_6_" x2="6.325" y2="8.903" transform="translate(71.955 20.029)" fill="none" stroke="#b2b2b2" stroke-linecap="round" stroke-miterlimit="10" stroke-width="1.2"/>
                <path id="XMLID_5_" d="M114.2,39l1.557,5.838a3.015,3.015,0,0,0,2.87,1.557c2.141-.1,11.968-1.265,11.968-1.265" transform="translate(-58.933 -20.333)" fill="none" stroke="#b2b2b2" stroke-linecap="round" stroke-miterlimit="10" stroke-width="1.2"/>
                <path id="XMLID_4_" d="M158.3,23l8.757-1.8a2.17,2.17,0,0,1,1.557.924c.73.924,1.265,1.7,1.265,1.7a1.356,1.356,0,0,1-.924,1.46,17.722,17.722,0,0,1-2.335.73" transform="translate(-81.578 -11.193)" fill="none" stroke="#b2b2b2" stroke-linecap="round" stroke-miterlimit="10" stroke-width="1.2"/>
                <path id="XMLID_3_" d="M94.28,50.093a2.124,2.124,0,0,1-2.092,2.53,36.185,36.185,0,0,1-5.935,0,5.263,5.263,0,0,0-1.7.535,4.5,4.5,0,0,1-2.433.73c-1.557.195-13.525-.1-13.525-.1s-1.265-.195-1.168-.827.535-1.7-1.07-1.8-2.968.341-3.065-1.46l-.195-3.892s-.341-1.7-.876-2.092c-.535-.341-3.065-8.125-1.995-9.73l5.692-7.59" transform="translate(-31.082 -13.863)" fill="none" stroke="#b2b2b2" stroke-linecap="round" stroke-miterlimit="10" stroke-width="1.2"/>
                <path id="XMLID_2_" d="M163.3,70.278v.341a2.676,2.676,0,1,0,5.352,0,2.885,2.885,0,0,0-.243-1.119" transform="translate(-84.145 -35.995)" fill="none" stroke="#b2b2b2" stroke-linecap="round" stroke-miterlimit="10" stroke-width="1.2"/>
              </g>
            </g>
          </g>
          <circle id="Ellipse_62" data-name="Ellipse 62" cx="2.822" cy="2.822" r="2.822" transform="translate(11.141 31.608)" fill="none" stroke="#b2b2b2" stroke-linecap="round" stroke-miterlimit="10" stroke-width="1.2"/>
        </g>
      </g>
      <g id="Group_1161" data-name="Group 1161" transform="translate(2.676 49.609)">
        <line id="Line_153" data-name="Line 153" x2="62.711" fill="none" stroke="#b2b2b2" stroke-linecap="round" stroke-miterlimit="10" stroke-width="1.2"/>
        <line id="Line_154" data-name="Line 154" x2="25.007" transform="translate(68.16)" fill="none" stroke="#b2b2b2" stroke-linecap="round" stroke-miterlimit="10" stroke-width="1.2"/>
      </g>
      <g id="Group_1162" data-name="Group 1162" transform="translate(91.074 6.504)">
        <line id="Line_155" data-name="Line 155" x1="3.357" transform="translate(9.876 20.239)" fill="none" stroke="#b2b2b2" stroke-linecap="round" stroke-miterlimit="10" stroke-width="1.2"/>
        <line id="Line_156" data-name="Line 156" x1="3.503" transform="translate(8.66 12.747)" fill="none" stroke="#b2b2b2" stroke-linecap="round" stroke-miterlimit="10" stroke-width="1.2"/>
        <line id="Line_157" data-name="Line 157" x1="4.038" transform="translate(3.26 7.395)" fill="none" stroke="#b2b2b2" stroke-linecap="round" stroke-miterlimit="10" stroke-width="1.2"/>
        <line id="Line_158" data-name="Line 158" x1="3.649" fill="none" stroke="#b2b2b2" stroke-linecap="round" stroke-miterlimit="10" stroke-width="1.2"/>
        <line id="Line_159" data-name="Line 159" x1="5.838" transform="translate(6.908 2.676)" fill="none" stroke="#b2b2b2" stroke-linecap="round" stroke-miterlimit="10" stroke-width="1.2"/>
      </g>
      <path id="Path_365" data-name="Path 365" d="M170.978,45.726c-2.968-2.822-7.3-2.53-11.092-1.995-2.189.292-1.508,3.649.681,3.357,2.287-.292,5.935-.876,7.833.924C169.956,49.472,172.534,47.234,170.978,45.726Z" transform="translate(-81.703 -22.583)" fill="#f2f2f2"/>
    </g>
  </g>
</svg>
