<svg xmlns="http://www.w3.org/2000/svg" width="111" height="111" viewBox="0 0 111 111">
  <g id="Group_3547" data-name="Group 3547" transform="translate(-226 -349)">
    <g id="Group_2563" data-name="Group 2563" transform="translate(226.5 349.5)">
      <g id="Rectangle_249" data-name="Rectangle 249" opacity="0">
        <rect id="Rectangle_278" data-name="Rectangle 278" width="110" height="110" fill="none" stroke="#b2b2b2" stroke-width="1"/>
      </g>
    </g>
    <g id="Group_2803" data-name="Group 2803" transform="translate(250.429 370.684)">
      <path id="Path_660" data-name="Path 660" d="M277.757,390.832c5.692-5,16.5-3.421,16.5-3.421l-.185-4.1,13.1-5.7-29.2-13.151L248,377.563l13.423,5.128-.191,4.72S272.988,386.552,277.757,390.832Z" transform="translate(-246.86 -364.461)" fill="#f2f2f2"/>
      <g id="child_Education" data-name="child Education" transform="translate(0 0.023)">
        <path id="Path_348" data-name="Path 348" d="M308.632,467.286s-2.463-9.744-6.746-13.17c0,0-4.176-3.855-13.6-3.427l-10.922,15.1-10.922-15.206c-9.532-.321-13.6,3.427-13.6,3.427-4.283,3.427-6.746,13.17-6.746,13.17h62.534Z" transform="translate(-246.098 -398.97)" fill="#f2f2f2"/>
        <g id="Group_1155" data-name="Group 1155">
          <g id="Group_1151" data-name="Group 1151" transform="translate(1.499)">
            <g id="Group_1150" data-name="Group 1150">
              <path id="Path_350" data-name="Path 350" d="M270.642,385.838s5.461-3,14.991-2.784c0,0,13.385-.643,16.918,3.748,0,0,5.354,31.481-15.955,31.8C286.7,418.6,267.109,418.069,270.642,385.838Z" transform="translate(-257.257 -371.918)" fill="none" stroke="#b2b2b2" stroke-linecap="round" stroke-miterlimit="10" stroke-width="1.2"/>
              <path id="Path_351" data-name="Path 351" d="M270.212,402.667s12.314-1.178,16.49,3.105c0,0,3.831-4.141,16.48-3.363" transform="translate(-257.256 -379.645)" fill="none" stroke="#b2b2b2" stroke-linecap="round" stroke-miterlimit="10" stroke-width="1.2"/>
              <path id="Path_352" data-name="Path 352" d="M275.674,402.725s-.535,5.995-4.926,6.425" transform="translate(-257.47 -379.81)" fill="none" stroke="#b2b2b2" stroke-linecap="round" stroke-miterlimit="10" stroke-width="1.2"/>
              <path id="Path_353" data-name="Path 353" d="M317.547,402.725a6.8,6.8,0,0,0,4.39,5.675" transform="translate(-276.214 -379.81)" fill="none" stroke="#b2b2b2" stroke-linecap="round" stroke-miterlimit="10" stroke-width="1.2"/>
              <path id="Path_354" data-name="Path 354" d="M324.655,408.044s3.855-.857,3.534,3.962c-.321,4.926-1.392,7.389-5.995,6.425" transform="translate(-278.076 -381.917)" fill="none" stroke="#b2b2b2" stroke-linecap="round" stroke-miterlimit="10" stroke-width="1.2"/>
              <path id="Path_355" data-name="Path 355" d="M266.945,408.044s-3.855-.857-3.534,3.962c.321,4.926,2.035,7.389,6.639,6.425" transform="translate(-254.524 -381.917)" fill="none" stroke="#b2b2b2" stroke-linecap="round" stroke-miterlimit="10" stroke-width="1.2"/>
              <path id="Path_356" data-name="Path 356" d="M294.536,383.346l12.85-5.675-29.34-13.17L248.6,377.67l13.064,5.036" transform="translate(-248.599 -364.5)" fill="none" stroke="#b2b2b2" stroke-linecap="round" stroke-miterlimit="10" stroke-width="1.2"/>
              <circle id="Ellipse_59" data-name="Ellipse 59" cx="2.249" cy="2.249" r="2.249" transform="translate(1.821 15.42)" fill="none" stroke="#b2b2b2" stroke-linecap="round" stroke-miterlimit="10" stroke-width="1.2"/>
              <line id="Line_150" data-name="Line 150" y1="19.596" transform="translate(4.069 19.917)" fill="none" stroke="#b2b2b2" stroke-linecap="round" stroke-miterlimit="10" stroke-width="1.2"/>
            </g>
          </g>
          <circle id="Ellipse_60" data-name="Ellipse 60" cx="1.499" cy="1.499" r="1.499" transform="translate(35.979 29.768)" fill="none" stroke="#b2b2b2" stroke-linecap="round" stroke-miterlimit="10" stroke-width="1.2"/>
          <circle id="Ellipse_61" data-name="Ellipse 61" cx="1.499" cy="1.499" r="1.499" transform="translate(24.628 29.768)" fill="none" stroke="#b2b2b2" stroke-linecap="round" stroke-miterlimit="10" stroke-width="1.2"/>
          <g id="Group_1152" data-name="Group 1152" transform="translate(24.307 45.295)">
            <line id="Line_151" data-name="Line 151" y2="5.033" transform="translate(14.027)" fill="none" stroke="#b2b2b2" stroke-linecap="round" stroke-miterlimit="10" stroke-width="1.2"/>
            <line id="Line_152" data-name="Line 152" y2="5.033" fill="none" stroke="#b2b2b2" stroke-linecap="round" stroke-miterlimit="10" stroke-width="1.2"/>
          </g>
          <g id="Group_1154" data-name="Group 1154" transform="translate(0 51.077)">
            <g id="Group_1153" data-name="Group 1153" transform="translate(0 0.074)">
              <path id="Path_357" data-name="Path 357" d="M277.365,464.532l-10.922-14.673c-9.532-.321-13.6,3.427-13.6,3.427-4.283,3.427-6.746,13.171-6.746,13.171h62.534s-2.463-9.744-6.746-13.171c0,0-4.176-3.855-13.6-3.427l-10.922,14.672" transform="translate(-246.098 -449.827)" fill="none" stroke="#b2b2b2" stroke-linecap="round" stroke-miterlimit="10" stroke-width="1.2"/>
            </g>
            <path id="Path_358" data-name="Path 358" d="M291.647,458.591l2.141-8.78,3.962-.107,1.713,8.888" transform="translate(-264.342 -449.703)" fill="none" stroke="#b2b2b2" stroke-linecap="round" stroke-miterlimit="10" stroke-width="1.2"/>
          </g>
        </g>
      </g>
    </g>
  </g>
</svg>
