<svg xmlns="http://www.w3.org/2000/svg" width="110" height="110" viewBox="0 0 110 110">
  <g id="Group_3546" data-name="Group 3546" transform="translate(-135 -650)">
    <g id="Rectangle_249" data-name="Rectangle 249" transform="translate(135 650)" fill="#fff" stroke="#707070" stroke-width="1" opacity="0">
      <rect width="110" height="110" stroke="none"/>
      <rect x="0.5" y="0.5" width="109" height="109" fill="none"/>
    </g>
    <g id="Group_2489" data-name="Group 2489" transform="translate(141.5 663.245)">
      <path id="Path_486" data-name="Path 486" d="M-1294.287,2085.974H-1237s5.616,1.6,4.493,6.418h-64.507l-21.022-16.927a6.493,6.493,0,0,1,7.7-2.17Z" transform="translate(1320.876 -2024.311)" fill="#f2f2f2"/>
      <path id="Path_487" data-name="Path 487" d="M-1228.67,2072.265s-7.593-11.1-19.881-5.962c0,0-8.218-12.13-25.385-7.242,0,0-8.1-9.79-20.478-4.292,0,0,12.233-23.973,40.625-17.3C-1253.789,2037.474-1226.286,2045.426-1228.67,2072.265Z" transform="translate(1325.656 -2031.704)" fill="#f2f2f2"/>
      <path id="Path_488" data-name="Path 488" d="M-1293.641,2053.106s10.453-18.948,35.335-16.376c0,0,29.9,3.714,29.514,34.817" transform="translate(1325.812 -2031.666)" fill="none" stroke="#b2b2b2" stroke-linecap="round" stroke-miterlimit="10" stroke-width="1.2"/>
      <g id="Group_1446" data-name="Group 1446">
        <path id="Path_489" data-name="Path 489" d="M-1294.414,2054.764s11.731-23.859,39.965-17.3c0,0,27.563,5.781,25.78,34.791,0,0-7.82-11.929-19.881-5.962,0,0-9.677-13.124-26.179-6.96C-1274.729,2059.337-1278.508,2049.4-1294.414,2054.764Z" transform="translate(1325.656 -2031.699)" fill="none" stroke="#b2b2b2" stroke-linecap="round" stroke-miterlimit="10" stroke-width="1.2"/>
        <line id="Line_195" data-name="Line 195" x1="12.703" y2="54.175" transform="translate(51.72 26.551)" fill="none" stroke="#b2b2b2" stroke-linecap="round" stroke-miterlimit="10" stroke-width="1.2"/>
        <path id="Path_490" data-name="Path 490" d="M-1259.312,2037.02s-15.747,0-18.07,21.895" transform="translate(1329.102 -2031.559)" fill="none" stroke="#b2b2b2" stroke-linecap="round" stroke-miterlimit="10" stroke-width="1.2"/>
        <path id="Path_491" data-name="Path 491" d="M-1260.074,2037.6s12.595,10.254,4.575,28.445" transform="translate(1332.604 -2031.443)" fill="none" stroke="#b2b2b2" stroke-linecap="round" stroke-miterlimit="10" stroke-width="1.2"/>
        <line id="Line_196" data-name="Line 196" x1="1.323" y2="5.769" transform="translate(71.206)" fill="none" stroke="#b2b2b2" stroke-linecap="round" stroke-miterlimit="10" stroke-width="1.2"/>
        <g id="Group_1441" data-name="Group 1441" transform="translate(2.84 48.53)">
          <path id="Path_492" data-name="Path 492" d="M-1294.287,2085.974H-1237s5.616,1.6,4.493,6.418h-64.507l-21.022-16.927a6.493,6.493,0,0,1,7.7-2.17Z" transform="translate(1318.036 -2072.841)" fill="none" stroke="#b2b2b2" stroke-linecap="round" stroke-miterlimit="10" stroke-width="1.2"/>
          <line id="Line_197" data-name="Line 197" x2="80.552" transform="translate(12.489 25.648)" fill="none" stroke="#b2b2b2" stroke-linecap="round" stroke-miterlimit="10" stroke-width="1.2"/>
          <line id="Line_198" data-name="Line 198" x2="16.292" transform="translate(28.402 7.169)" fill="none" stroke="#b2b2b2" stroke-linecap="round" stroke-miterlimit="10" stroke-width="1.2"/>
          <line id="Line_199" data-name="Line 199" x2="2.729" transform="translate(47.497 7.112)" fill="none" stroke="#b2b2b2" stroke-linecap="round" stroke-miterlimit="10" stroke-width="1.2"/>
        </g>
        <line id="Line_200" data-name="Line 200" y2="5.702" transform="translate(31.241 68.082)" fill="none" stroke="#b2b2b2" stroke-linecap="round" stroke-miterlimit="10" stroke-width="1.2"/>
        <line id="Line_201" data-name="Line 201" y2="5.702" transform="translate(35.04 68.082)" fill="none" stroke="#b2b2b2" stroke-linecap="round" stroke-miterlimit="10" stroke-width="1.2"/>
        <line id="Line_202" data-name="Line 202" y2="5.702" transform="translate(76.575 68.082)" fill="none" stroke="#b2b2b2" stroke-linecap="round" stroke-miterlimit="10" stroke-width="1.2"/>
        <line id="Line_203" data-name="Line 203" y2="5.702" transform="translate(80.373 68.082)" fill="none" stroke="#b2b2b2" stroke-linecap="round" stroke-miterlimit="10" stroke-width="1.2"/>
        <g id="Group_1444" data-name="Group 1444" transform="translate(26.808 80.669)">
          <g id="Group_1442" data-name="Group 1442">
            <path id="Path_493" data-name="Path 493" d="M-1298.1,2099.571c3.065,0,3.065,2.405,6.128,2.405s3.066-2.405,6.132-2.405,3.065,2.405,6.131,2.405,3.066-2.405,6.131-2.405,3.067,2.405,6.133,2.405,3.065-2.405,6.13-2.405,3.067,2.405,6.135,2.405,3.07-2.405,6.138-2.405,3.07,2.405,6.139,2.405" transform="translate(1298.101 -2099.571)" fill="none" stroke="#b2b2b2" stroke-linecap="round" stroke-miterlimit="10" stroke-width="1.2"/>
          </g>
          <g id="Group_1443" data-name="Group 1443" transform="translate(5.701 6.727)">
            <path id="Path_494" data-name="Path 494" d="M-1293.359,2105.166c3.065,0,3.065,2.4,6.129,2.4s3.066-2.4,6.131-2.4,3.066,2.4,6.132,2.4,3.065-2.4,6.131-2.4,3.066,2.4,6.132,2.4,3.065-2.4,6.13-2.4,3.067,2.4,6.134,2.4,3.07-2.4,6.139-2.4,3.07,2.4,6.139,2.4" transform="translate(1293.359 -2105.166)" fill="none" stroke="#b2b2b2" stroke-linecap="round" stroke-miterlimit="10" stroke-width="1.2"/>
          </g>
        </g>
        <g id="Group_1445" data-name="Group 1445" transform="translate(0 5.281)">
          <path id="Path_495" data-name="Path 495" d="M-1304.1,2047.279a5.878,5.878,0,0,1-5.88,5.877,5.878,5.878,0,0,1-5.876-5.877,5.876,5.876,0,0,1,5.876-5.876A5.876,5.876,0,0,1-1304.1,2047.279Z" transform="translate(1321.316 -2035.954)" fill="none" stroke="#b2b2b2" stroke-linecap="round" stroke-miterlimit="10" stroke-width="1.2"/>
          <line id="Line_204" data-name="Line 204" y1="1.511" x2="2.795" transform="translate(18.847 6.318)" fill="none" stroke="#b2b2b2" stroke-linecap="round" stroke-miterlimit="10" stroke-width="1.2"/>
          <line id="Line_205" data-name="Line 205" x2="3.297" y2="1.23" transform="translate(19.4 14.276)" fill="none" stroke="#b2b2b2" stroke-linecap="round" stroke-miterlimit="10" stroke-width="1.2"/>
          <line id="Line_206" data-name="Line 206" x2="0.896" y2="3.076" transform="translate(14.819 18.955)" fill="none" stroke="#b2b2b2" stroke-linecap="round" stroke-miterlimit="10" stroke-width="1.2"/>
          <line id="Line_207" data-name="Line 207" x1="1.236" y2="3.301" transform="translate(6.873 18.955)" fill="none" stroke="#b2b2b2" stroke-linecap="round" stroke-miterlimit="10" stroke-width="1.2"/>
          <line id="Line_208" data-name="Line 208" y1="1.511" x2="3.133" transform="translate(0 14.648)" fill="none" stroke="#b2b2b2" stroke-linecap="round" stroke-miterlimit="10" stroke-width="1.2"/>
          <line id="Line_209" data-name="Line 209" x2="3.133" y2="1.202" transform="translate(0 7.073)" fill="none" stroke="#b2b2b2" stroke-linecap="round" stroke-miterlimit="10" stroke-width="1.2"/>
          <line id="Line_210" data-name="Line 210" x2="1.901" y2="2.575" transform="translate(5.982 0.389)" fill="none" stroke="#b2b2b2" stroke-linecap="round" stroke-miterlimit="10" stroke-width="1.2"/>
          <line id="Line_211" data-name="Line 211" x1="1.12" y2="2.964" transform="translate(14.595)" fill="none" stroke="#b2b2b2" stroke-linecap="round" stroke-miterlimit="10" stroke-width="1.2"/>
        </g>
      </g>
    </g>
  </g>
</svg>
