<svg xmlns="http://www.w3.org/2000/svg" width="40" height="50" viewBox="0 0 40 50"><defs><style>.a{fill:#ffc32c;}.b,.c{fill:#fff;}.b{stroke:#707070;opacity:0;}.d{stroke:none;}.e{fill:none;}</style></defs><g transform="translate(-1404 -331)"><path class="a" d="M0,0H40a0,0,0,0,1,0,0V46a4,4,0,0,1-4,4H0a0,0,0,0,1,0,0V0A0,0,0,0,1,0,0Z" transform="translate(1404 331)"/><g transform="translate(1411.5 343.682)"><g class="b" transform="translate(-0.218 0.318)"><rect class="d" width="24" height="23.978"/><rect class="e" x="0.5" y="0.5" width="23" height="22.978"/></g><g transform="translate(1 0.296)"><path class="c" d="M1261.949,399.1a9.022,9.022,0,0,1-3.1-.581,12.935,12.935,0,0,1-2.61-1.335,20.088,20.088,0,0,1-2.7-2.14,31.2,31.2,0,0,1-2.842-3.059,24.714,24.714,0,0,1-2.379-3.415,14.346,14.346,0,0,1-1.55-3.8,9.211,9.211,0,0,1-.251-2.637,7.393,7.393,0,0,1,1.512-4.177,7.123,7.123,0,0,1,1.293-1.288c.28-.218.539-.463.808-.7a2.457,2.457,0,0,1,.682-.439,1.428,1.428,0,0,1,1.289.092,3.585,3.585,0,0,1,1.028.941,18.329,18.329,0,0,1,1.054,1.566,10.621,10.621,0,0,1,.687,1.194,4.107,4.107,0,0,1,.41,1.33,2.093,2.093,0,0,1-.546,1.715c-.253.272-.549.505-.821.761a8.442,8.442,0,0,1-.863.663,1.811,1.811,0,0,0-.742,1.011,2.206,2.206,0,0,0,.013,1.085,5.64,5.64,0,0,0,.687,1.584,15.129,15.129,0,0,0,1.413,1.946,21.145,21.145,0,0,0,1.705,1.838,8.365,8.365,0,0,0,1.794,1.355,2.887,2.887,0,0,0,1.167.366,1.705,1.705,0,0,0,1.272-.45,2.155,2.155,0,0,0,.231-.223,9.793,9.793,0,0,1,1.043-.98,4.109,4.109,0,0,1,.654-.5,2.192,2.192,0,0,1,1.823-.173,4.419,4.419,0,0,1,1.409.77c.512.405,1.006.833,1.5,1.253a7.409,7.409,0,0,1,.981.98,2.892,2.892,0,0,1,.5.854,1.411,1.411,0,0,1-.27,1.447,6.114,6.114,0,0,1-.57.56c-.335.307-.67.616-1.017.91a6.947,6.947,0,0,1-2.414,1.324A7.493,7.493,0,0,1,1261.949,399.1Z" transform="translate(-1246.512 -375.421)"/></g></g></g></svg>