<svg xmlns="http://www.w3.org/2000/svg" width="111.2" height="110" viewBox="0 0 111.2 110">
  <g id="Group_3536" data-name="Group 3536" transform="translate(-134.4 -650)">
    <g id="Rectangle_249" data-name="Rectangle 249" transform="translate(135 650)" fill="#fff" stroke="#707070" stroke-width="1" opacity="0">
      <rect width="110" height="110" stroke="none"/>
      <rect x="0.5" y="0.5" width="109" height="109" fill="none"/>
    </g>
    <g id="Group_1434" data-name="Group 1434" transform="translate(135 679.924)">
      <path id="Path_475" data-name="Path 475" d="M-1574.254,2079.551a16.467,16.467,0,0,0-11.543-10.891s-13.594-3.818-22.9-10.148c0,0-9.31-6.424-20.761-6.331,0,0-20.854-.373-26.719,1.582a4.192,4.192,0,0,0-1.862,1.77l-6.331,17.223s-1.117,2.979-1.676,3.258-2.979,4.934-2.979,6.145-2.606,8.938,5.121,11.543l.433.028c-.98-6.628,2.85-14.105,11.491-14.105,9.274,0,13,8.586,11.205,15.511,11.78.171,26.786.111,38.266,0a11.713,11.713,0,0,1-.6-3.684,11.751,11.751,0,0,1,11.751-11.751,11.751,11.751,0,0,1,11.751,11.751,11.741,11.741,0,0,1-.5,3.373l.264,0s7.913-.187,7.913-5.027v-6.829S-1572.765,2080.11-1574.254,2079.551Zm-61.25-13.272a1.34,1.34,0,0,1-1.67,1.272c-5.437-1.454-11.464.063-17-.819a1.325,1.325,0,0,1-.921-1.623,15.315,15.315,0,0,1,4.163-7.274,1.258,1.258,0,0,1,1.092-.333,3.5,3.5,0,0,1,.8-.368c3.684-1.142,8.932-.291,12.639.5a1.344,1.344,0,0,1,.969,1.272A49.825,49.825,0,0,1-1635.5,2066.279Zm29.889,1.866a1.215,1.215,0,0,1-.717-.234,1.587,1.587,0,0,1-1.058.246,192.523,192.523,0,0,0-22.4-.41,1.83,1.83,0,0,1-1.745-2.29,22.217,22.217,0,0,0,.073-6.553,1.564,1.564,0,0,1,1.519-1.728,1.569,1.569,0,0,1,1.11-.287c3.718.316,7.478.312,10.963,1.764,3.212,1.338,6.158,3.754,9.526,4.584a1.583,1.583,0,0,1,1.266,1.359,1.8,1.8,0,0,1,1.19.965,1.24,1.24,0,0,1,.273-.055A1.32,1.32,0,0,1-1605.615,2068.145Z" transform="translate(1681.926 -2052.153)" fill="#ffc32c"/>
      <g id="Group_1432" data-name="Group 1432" transform="translate(12.476)">
        <path id="Path_476" data-name="Path 476" d="M-1663.873,2092.613a9.3,9.3,0,0,1-.256-2.177,11.752,11.752,0,0,1,11.751-11.751,11.752,11.752,0,0,1,11.751,11.751,10.359,10.359,0,0,1-.552,3.567" transform="translate(1669.654 -2051.137)" fill="none" stroke="#31353f" stroke-linecap="round" stroke-miterlimit="10" stroke-width="1.2"/>
        <path id="Path_477" data-name="Path 477" d="M-1656.4,2067.085s1.211-9.869,5.865-10.148,14.8,0,14.8,0v10.52Z" transform="translate(1669.95 -2051.974)" fill="none" stroke="#31353f" stroke-linecap="round" stroke-miterlimit="10" stroke-width="1.2"/>
        <path id="Path_478" data-name="Path 478" d="M-1633.267,2056.813v11.109h29.047s-9.31-9.744-20.2-11.109Z" transform="translate(1670.835 -2051.974)" fill="none" stroke="#31353f" stroke-linecap="round" stroke-miterlimit="10" stroke-width="1.2"/>
        <path id="Path_479" data-name="Path 479" d="M-1659.269,2077.527s15.648-7.634,21.234,9.589h31.738s2.606-8.654,7.913-9.4" transform="translate(1669.84 -2051.246)" fill="none" stroke="#31353f" stroke-linecap="round" stroke-miterlimit="10" stroke-width="1.2"/>
        <path id="Path_480" data-name="Path 480" d="M-1576.716,2079.107s-5.388.407-8.5-1.443a20.408,20.408,0,0,1-5.132-4.469s-.838-2.1.943-2.1a22.321,22.321,0,0,1,7.868.929" transform="translate(1672.471 -2051.429)" fill="none" stroke="#31353f" stroke-linecap="round" stroke-miterlimit="10" stroke-width="1.2"/>
        <line id="Line_185" data-name="Line 185" x1="6.633" transform="translate(90.716 35.557)" fill="none" stroke="#31353f" stroke-linecap="round" stroke-miterlimit="10" stroke-width="1.2"/>
        <g id="Group_1430" data-name="Group 1430" transform="translate(70.022 31.228)">
          <path id="Path_481" data-name="Path 481" d="M-1585.866,2090.3a8.073,8.073,0,0,1-8.072,8.074,8.073,8.073,0,0,1-8.072-8.074,8.072,8.072,0,0,1,8.072-8.073A8.073,8.073,0,0,1-1585.866,2090.3Z" transform="translate(1602.01 -2082.229)" fill="none" stroke="#31353f" stroke-linecap="round" stroke-miterlimit="10" stroke-width="1.2"/>
          <path id="Path_482" data-name="Path 482" d="M-1590.383,2090.14a3.715,3.715,0,0,1-3.716,3.717,3.717,3.717,0,0,1-3.718-3.717,3.718,3.718,0,0,1,3.718-3.716A3.716,3.716,0,0,1-1590.383,2090.14Z" transform="translate(1602.17 -2082.068)" fill="none" stroke="#31353f" stroke-linecap="round" stroke-miterlimit="10" stroke-width="1.2"/>
        </g>
        <g id="Group_1431" data-name="Group 1431" transform="translate(9.204 31.228)">
          <path id="Path_483" data-name="Path 483" d="M-1644.442,2090.3a8.074,8.074,0,0,1-8.072,8.074,8.073,8.073,0,0,1-8.073-8.074,8.073,8.073,0,0,1,8.073-8.073A8.074,8.074,0,0,1-1644.442,2090.3Z" transform="translate(1660.586 -2082.229)" fill="none" stroke="#31353f" stroke-linecap="round" stroke-miterlimit="10" stroke-width="1.2"/>
          <path id="Path_484" data-name="Path 484" d="M-1648.959,2090.14a3.715,3.715,0,0,1-3.715,3.717,3.718,3.718,0,0,1-3.719-3.717,3.719,3.719,0,0,1,3.719-3.716A3.716,3.716,0,0,1-1648.959,2090.14Z" transform="translate(1660.746 -2082.068)" fill="none" stroke="#31353f" stroke-linecap="round" stroke-miterlimit="10" stroke-width="1.2"/>
        </g>
        <path id="Path_485" data-name="Path 485" d="M-1641.01,2095.133c11.815.176,26.943.116,38.5,0a11.713,11.713,0,0,1-.6-3.684,11.751,11.751,0,0,1,11.751-11.751,11.751,11.751,0,0,1,11.751,11.751,11.741,11.741,0,0,1-.5,3.373l.264,0s7.914-.187,7.914-5.027v-6.829s-.838-2.854-2.328-3.413a16.467,16.467,0,0,0-11.543-10.891s-13.594-3.818-22.9-10.148c0,0-9.31-6.424-20.761-6.331,0,0-20.854-.373-26.719,1.582a4.192,4.192,0,0,0-1.862,1.77l-6.331,17.223s-1.117,2.979-1.676,3.258-2.979,4.934-2.979,6.145-2.606,8.938,5.121,11.543" transform="translate(1669.45 -2052.153)" fill="none" stroke="#31353f" stroke-linecap="round" stroke-miterlimit="10" stroke-width="1.2"/>
      </g>
      <line id="Line_186" data-name="Line 186" x2="5.324" transform="translate(50.7 19.622)" fill="none" stroke="#31353f" stroke-linecap="round" stroke-miterlimit="10" stroke-width="1.2"/>
      <line id="Line_187" data-name="Line 187" x2="5.324" transform="translate(40.502 19.622)" fill="none" stroke="#31353f" stroke-linecap="round" stroke-miterlimit="10" stroke-width="1.2"/>
      <line id="Line_188" data-name="Line 188" x2="68.106" transform="translate(4.016 48.755)" fill="none" stroke="#31353f" stroke-linecap="round" stroke-miterlimit="10" stroke-width="1.2"/>
      <line id="Line_189" data-name="Line 189" x2="30.775" transform="translate(76.675 48.973)" fill="none" stroke="#31353f" stroke-linecap="round" stroke-miterlimit="10" stroke-width="1.2"/>
      <g id="Group_1433" data-name="Group 1433" transform="translate(0 5.519)">
        <line id="Line_190" data-name="Line 190" x2="3.843" transform="translate(2.16 27.953)" fill="none" stroke="#31353f" stroke-linecap="round" stroke-miterlimit="10" stroke-width="1.2"/>
        <line id="Line_191" data-name="Line 191" x2="4.022" transform="translate(3.405 19.304)" fill="none" stroke="#31353f" stroke-linecap="round" stroke-miterlimit="10" stroke-width="1.2"/>
        <line id="Line_192" data-name="Line 192" x2="4.656" transform="translate(6.279 8.502)" fill="none" stroke="#31353f" stroke-linecap="round" stroke-miterlimit="10" stroke-width="1.2"/>
        <line id="Line_193" data-name="Line 193" x2="4.192" transform="translate(10.488)" fill="none" stroke="#31353f" stroke-linecap="round" stroke-miterlimit="10" stroke-width="1.2"/>
        <line id="Line_194" data-name="Line 194" x2="6.705" transform="translate(0 3.075)" fill="none" stroke="#31353f" stroke-linecap="round" stroke-miterlimit="10" stroke-width="1.2"/>
      </g>
    </g>
  </g>
</svg>
