<svg id="Group_4104" data-name="Group 4104" xmlns="http://www.w3.org/2000/svg" width="24" height="24" viewBox="0 0 24 24">
  <g id="Group_4103" data-name="Group 4103">
    <g id="Group_4101" data-name="Group 4101">
      <circle id="Ellipse_137" data-name="Ellipse 137" cx="12" cy="12" r="12" fill="#31353f"/>
    </g>
    <g id="Group_2772" data-name="Group 2772" transform="translate(-572 -771)">
      <g id="Group_2260" data-name="Group 2260" transform="translate(564.343 765.197)">
        <g id="Group_2261" data-name="Group 2261" transform="translate(14.657 11.803)">
          <g id="Group_2260-2" data-name="Group 2260">
            <path id="Path_590" data-name="Path 590" d="M475.215,630.441l-5.92,5.91-1.5,3.6a.168.168,0,0,0,.222.219l3.511-1.52,5.968-5.92a1.463,1.463,0,0,0-.008-2.086l-.22-.215A1.463,1.463,0,0,0,475.215,630.441Z" transform="translate(-467.785 -630.013)" fill="none" stroke="#fff" stroke-linecap="square" stroke-linejoin="round" stroke-width="1"/>
            <path id="Path_591" data-name="Path 591" d="M472.054,647.2l2.256,2.325" transform="translate(-470.482 -640.872)" fill="none" stroke="#fff" stroke-width="1"/>
            <path id="Path_592" data-name="Path 592" d="M486.8,632.467l2.3,2.2" transform="translate(-479.795 -631.563)" fill="none" stroke="#fff" stroke-width="1"/>
          </g>
          <path id="Path_593" data-name="Path 593" d="M465,662.28h4.858" transform="translate(-464.921 -650.398)" fill="none" stroke="#fff" stroke-linecap="round" stroke-width="1"/>
        </g>
      </g>
    </g>
  </g>
</svg>
