<svg xmlns="http://www.w3.org/2000/svg" xmlns:xlink="http://www.w3.org/1999/xlink" width="72" height="72" viewBox="0 0 72 72"><defs><style>.a{fill:#fff;stroke:#707070;opacity:0;}.b,.c{isolation:isolate;}.c{fill:#01c58d;font-size:51px;font-family:SourceSansPro-Semibold, Source Sans Pro;font-weight:600;letter-spacing:-0.02em;}.d,.g{fill:none;}.d{stroke:#e8e8e8;stroke-miterlimit:10;stroke-width:6px;opacity:0.419;}.e{fill:url(#a);}.f{stroke:none;}</style><linearGradient id="a" x1="0.711" y1="0.867" x2="0.653" y2="0.054" gradientUnits="objectBoundingBox"><stop offset="0" stop-color="#fff" stop-opacity="0"/><stop offset="0.552" stop-color="#08c29c" stop-opacity="0.969"/><stop offset="1" stop-color="#00c099"/></linearGradient></defs><g transform="translate(-1439 -39)"><g class="a" transform="translate(1439 39)"><rect class="f" width="72" height="72"/><rect class="g" x="0.5" y="0.5" width="71" height="71"/></g><g transform="translate(1441.238 41.238)"><g transform="translate(0 0)"><g class="b" transform="translate(19.955 0)"><text class="c" transform="translate(0 50)"><tspan x="0" y="0">8</tspan></text></g><g transform="translate(2.507 3.869)"><circle class="d" cx="30.767" cy="30.767" r="30.767" transform="translate(0 0)"/></g><path class="e" d="M4.823,51.542A34.256,34.256,0,0,1,16.233,4.879,33.419,33.419,0,0,1,62.36,16.422a34.23,34.23,0,0,1,2.181,4.33A2.931,2.931,0,0,1,63,24.578a2.874,2.874,0,0,1-3.782-1.554,28.377,28.377,0,0,0-1.806-3.585,27.677,27.677,0,0,0-38.2-9.56,28.371,28.371,0,0,0-9.45,38.646,27.678,27.678,0,0,0,38.2,9.56,2.866,2.866,0,0,1,3.962.991,2.939,2.939,0,0,1-.98,4.009,33.116,33.116,0,0,1-17.3,4.879A33.53,33.53,0,0,1,4.823,51.542Z" transform="translate(-0.309 0.508)"/></g></g></g></svg>