<svg id="Group_3097" data-name="Group 3097" xmlns="http://www.w3.org/2000/svg" width="48" height="48" viewBox="0 0 48 48">
  <g id="Group_2949" data-name="Group 2949">
    <g id="Path_755" data-name="Path 755" fill="#fff" opacity="0">
      <path d="M 47.5 47.5 L 0.5 47.5 L 0.5 0.5 L 47.5 0.5 L 47.5 47.5 Z" stroke="none"/>
      <path d="M 1 1 L 1 47 L 47 47 L 47 1 L 1 1 M 0 0 L 48 0 L 48 48 L 0 48 L 0 0 Z" stroke="none" fill="#707070"/>
    </g>
    <g id="Group_2898" data-name="Group 2898" transform="translate(5 5.307)">
      <g id="Group_2891" data-name="Group 2891">
        <path id="Path_756" data-name="Path 756" d="M62.323,165c.539.074,1.084.125,1.617.228q1.305.253,2.6.566c.563.137,1.114.327,1.714.507-.1.111-.159.193-.231.265-.843.847-1.693,1.688-2.529,2.542a.447.447,0,0,1-.506.146,14.71,14.71,0,0,0-5.139-.439,14.493,14.493,0,0,0-6.01,1.882,14.926,14.926,0,0,0-5.715,5.726,14.857,14.857,0,0,0-.809,13,14.957,14.957,0,0,0,4.568,6.067,14.8,14.8,0,0,0,15.44,1.9,14.87,14.87,0,0,0,6.928-6.427,14.245,14.245,0,0,0,1.828-6.221c.017-.316.037-.631.057-.989h3.735V185c-.024.106-.055.211-.07.317-.091.663-.147,1.333-.274,1.99a18.281,18.281,0,0,1-4.334,8.81,18.468,18.468,0,0,1-11.215,6.174c-.526.084-1.055.146-1.583.218H59.91c-.432-.055-.865-.1-1.295-.166A18.832,18.832,0,0,1,42.758,180.3a17.962,17.962,0,0,1,4.356-8.914,18.478,18.478,0,0,1,11.213-6.17c.526-.084,1.055-.146,1.582-.218Z" transform="translate(-42.43 -165)" fill="#01c58d"/>
        <path id="Path_757" data-name="Path 757" d="M166.69,253.808l-8.471-8.491,2.626-2.607,5.825,5.846,16.289-16.321,2.632,2.636Z" transform="translate(-150.14 -227.241)" fill="#01c58d"/>
      </g>
    </g>
  </g>
</svg>
