<svg xmlns="http://www.w3.org/2000/svg" width="24" height="24" viewBox="0 0 24 24">
  <g id="edit" transform="translate(-2286 -468)">
    <circle id="Ellipse_137" data-name="Ellipse 137" cx="12" cy="12" r="12" transform="translate(2286 468)" fill="#31353f"/>
    <path id="Path_590" data-name="Path 590" d="M475.215,630.441l-5.92,5.91-1.5,3.6a.168.168,0,0,0,.222.219l3.511-1.52,5.968-5.92a1.463,1.463,0,0,0-.008-2.086l-.22-.215A1.463,1.463,0,0,0,475.215,630.441Z" transform="translate(1825.215 -156.013)" fill="none" stroke="#fff" stroke-linecap="square" stroke-linejoin="round" stroke-width="1"/>
    <path id="Path_591" data-name="Path 591" d="M472.054,647.2l2.256,2.325" transform="translate(1822.518 -166.872)" fill="none" stroke="#fff" stroke-width="1"/>
    <path id="Path_592" data-name="Path 592" d="M486.8,632.467l2.3,2.2" transform="translate(1813.205 -157.563)" fill="none" stroke="#fff" stroke-width="1"/>
    <path id="Path_593" data-name="Path 593" d="M465,662.28h4.858" transform="translate(1828.079 -176.398)" fill="none" stroke="#fff" stroke-linecap="round" stroke-width="1"/>
  </g>
</svg>
