<svg xmlns="http://www.w3.org/2000/svg" width="110" height="110" viewBox="0 0 110 110">
  <g id="Group_3542" data-name="Group 3542" transform="translate(-135 -650)">
    <g id="Rectangle_249" data-name="Rectangle 249" transform="translate(135 650)" fill="#fff" stroke="#707070" stroke-width="1" opacity="0">
      <rect width="110" height="110" stroke="none"/>
      <rect x="0.5" y="0.5" width="109" height="109" fill="none"/>
    </g>
    <g id="Group_1998" data-name="Group 1998" transform="translate(145.75 660.426)">
      <path id="Path_446" data-name="Path 446" d="M-1617.256,1865.39l4.228,1.6-2.114,7.026,4.591,2.33-3.155,6.646,6.288,4.228-3.134,7.682,6.759,2.848-3.194,5,5.351,2.59-1.208,2.675s6.214-1.9,7.335-3.28l2.071,4.143s.172.69,1.64.432a31.874,31.874,0,0,0,3.884-1.122s1.208-.087,1.122-1.812-.95-8.977-.95-8.977,11.393-14.93-3.711-28.135C-1591.452,1869.273-1600.859,1860.73-1617.256,1865.39Z" transform="translate(1663.229 -1824.027)" fill="#f2f2f2"/>
      <path id="Path_447" data-name="Path 447" d="M-1617.256,1865.39l4.228,1.6-2.114,7.026,4.591,2.33-3.155,6.646,6.288,4.228-3.134,7.682,6.759,2.848-3.194,5,5.351,2.59-1.208,2.675s6.214-1.9,7.335-3.28l2.071,4.143s.172.69,1.64.432a31.874,31.874,0,0,0,3.884-1.122s1.208-.087,1.122-1.812-.95-8.977-.95-8.977,11.393-14.93-3.711-28.135C-1591.452,1869.273-1600.859,1860.73-1617.256,1865.39Z" transform="translate(1663.229 -1824.027)" fill="none" stroke="#b2b2b2" stroke-linecap="round" stroke-miterlimit="10" stroke-width="1.2"/>
      <path id="Path_448" data-name="Path 448" d="M-1629.38,1839.315l-.944,9.306,10.845,19.044,8.28-4.461-8.92-16.238-5.37-9.776Z" transform="translate(1659.852 -1830.955)" fill="none" stroke="#b2b2b2" stroke-linecap="round" stroke-miterlimit="10" stroke-width="1.2"/>
      <path id="Path_449" data-name="Path 449" d="M-1620.027,1866.249l2.718,3.754-5.351,4.747,2.46,4.532-6,3.668,2.858,7.249-6.827,4.747,3.883,6s-5.049,2.416-5.178,2.416,2.977,5.049,2.977,5.049l-2.46,1.51s-4.79-1.295-6.429-2.718l-1.769,3.452s-.517,1.208-2.374.819l-3.452-.949s-1.079-.087-.949-2.114.734-7.768.734-7.768-4.919-5.863-4.963-12.058l-2.609-1.534a3.194,3.194,0,0,1-.8-3.624c.821-2.373,2.244-7.811,2.244-7.811a2.828,2.828,0,0,1,2.39-1.208c1.495.13,2.875.13,2.875.13a17.392,17.392,0,0,1,8.5-6.387l-.087-11.478,9.106,8.975A34.718,34.718,0,0,1-1620.027,1866.249Z" transform="translate(1653.788 -1825.921)" fill="#f2f2f2"/>
      <path id="Path_450" data-name="Path 450" d="M-1618.561,1854.894l27.885-15.954-3.664-6.7-27.873,16.01" transform="translate(1661.948 -1832.236)" fill="none" stroke="#b2b2b2" stroke-linecap="round" stroke-miterlimit="10" stroke-width="1.2"/>
      <path id="Path_451" data-name="Path 451" d="M-1628.547,1848.605l-2.184,1.353,3.517,6.485,2.425-1.239" transform="translate(1659.746 -1828.005)" fill="none" stroke="#b2b2b2" stroke-linecap="round" stroke-miterlimit="10" stroke-width="1.2"/>
      <path id="Path_452" data-name="Path 452" d="M-1620.027,1866.249l2.718,3.754-5.351,4.747,2.46,4.532-6,3.668,2.858,7.249-6.827,4.747,3.883,6s-5.049,2.416-5.178,2.416,2.977,5.049,2.977,5.049l-2.46,1.51s-4.79-1.295-6.429-2.718l-1.769,3.452s-.517,1.208-2.374.819l-3.452-.949s-1.079-.087-.949-2.114.734-7.768.734-7.768-4.919-5.863-4.963-12.058l-2.609-1.534a3.194,3.194,0,0,1-.8-3.624c.821-2.373,2.244-7.811,2.244-7.811a2.828,2.828,0,0,1,2.39-1.208c1.495.13,2.875.13,2.875.13a17.392,17.392,0,0,1,8.5-6.387l-.087-11.478,9.106,8.975A34.718,34.718,0,0,1-1620.027,1866.249Z" transform="translate(1653.788 -1825.921)" fill="none" stroke="#b2b2b2" stroke-linecap="round" stroke-miterlimit="10" stroke-width="1.2"/>
      <line id="Line_180" data-name="Line 180" x2="2.589" y2="4.66" transform="translate(14.041 48.009)" fill="none" stroke="#b2b2b2" stroke-linecap="round" stroke-miterlimit="10" stroke-width="1.2"/>
      <line id="Line_181" data-name="Line 181" y1="2.589" x2="4.66" transform="translate(12.573 49.044)" fill="none" stroke="#b2b2b2" stroke-linecap="round" stroke-miterlimit="10" stroke-width="1.2"/>
      <path id="Path_453" data-name="Path 453" d="M-1593.129,1872.924s3.468-4.661,7.87-2.331,1.64,8.112-1.812,5.436.572-7.864,4.083-6.09a14.217,14.217,0,0,1,5.583,5.313" transform="translate(1669.464 -1822.585)" fill="none" stroke="#b2b2b2" stroke-linecap="round" stroke-miterlimit="10" stroke-width="1.2"/>
      <path id="Path_454" data-name="Path 454" d="M-1599.244,1832.626" transform="translate(1667.884 -1832.135)" fill="none" stroke="#b2b2b2" stroke-linecap="round" stroke-miterlimit="10" stroke-width="1.2"/>
      <path id="Path_455" data-name="Path 455" d="M-1620.483,1845.516" transform="translate(1662.395 -1828.803)" fill="none" stroke="#b2b2b2" stroke-linecap="round" stroke-miterlimit="10" stroke-width="1.2"/>
      <ellipse id="Ellipse_97" data-name="Ellipse 97" cx="8.073" cy="8.073" rx="8.073" ry="8.073" transform="translate(32.114 51.324)" fill="none" stroke="#b2b2b2" stroke-linecap="round" stroke-miterlimit="10" stroke-width="1.2"/>
      <rect id="Rectangle_95" data-name="Rectangle 95" width="20.187" height="3.309" transform="translate(36.372 79.053)" fill="none" stroke="#b2b2b2" stroke-linecap="round" stroke-miterlimit="10" stroke-width="1.2"/>
      <path id="Path_456" data-name="Path 456" d="M-1605.212,1895.5h-16.642v-3.309h17.752" transform="translate(1662.041 -1816.741)" fill="none" stroke="#b2b2b2" stroke-linecap="round" stroke-miterlimit="10" stroke-width="1.2"/>
      <rect id="Rectangle_96" data-name="Rectangle 96" width="20.187" height="3.266" transform="translate(33.062 82.362)" fill="none" stroke="#b2b2b2" stroke-linecap="round" stroke-miterlimit="10" stroke-width="1.2"/>
      <path id="Path_457" data-name="Path 457" d="M-1634.1,1901.7l12.2-12.255,2.129,1.784-12.007,12.332Z" transform="translate(1658.877 -1817.451)" fill="none" stroke="#b2b2b2" stroke-linecap="round" stroke-miterlimit="10" stroke-width="1.2"/>
      <path id="Path_496" data-name="Path 496" d="M-1619.381,1886.216a.618.618,0,0,1-.405-.154l-4.338-4.44a.5.5,0,0,1-.18-.386.493.493,0,0,1,.146-.352.484.484,0,0,1,.353-.145,6.343,6.343,0,0,0,1.216-.1,3.246,3.246,0,0,0,.965-.342,1.992,1.992,0,0,0,.693-.628,1.682,1.682,0,0,0,.272-.735h-3.19a.439.439,0,0,1-.482-.453.434.434,0,0,1,.482-.454h3.128a1.474,1.474,0,0,0-.7-.868,3.557,3.557,0,0,0-1.785-.394h-.647a.435.435,0,0,1-.482-.454.441.441,0,0,1,.482-.468h5.332a.48.48,0,0,1,.345.137.455.455,0,0,1,.137.331.435.435,0,0,1-.482.454l-1.939,0a2.3,2.3,0,0,1,.183.168,2.516,2.516,0,0,1,.4.56,2.259,2.259,0,0,1,.218.605l1.13-.069a.437.437,0,0,1,.49.454.439.439,0,0,1-.482.453h-1.175a1.946,1.946,0,0,1-.344,1.218,2.949,2.949,0,0,1-.94.879,3.85,3.85,0,0,1-1.184.449c-.219.045-.428.08-.628.1l3.74,3.765a.546.546,0,0,1,.166.389.476.476,0,0,1-.139.343A.485.485,0,0,1-1619.381,1886.216Z" transform="translate(1661.4 -1820.967)" fill="#b2b2b2"/>
    </g>
  </g>
</svg>
