<svg xmlns="http://www.w3.org/2000/svg" width="192" height="167.56" viewBox="0 0 192 167.56"><defs><style>.a{fill:#f2f2f2;}.b{fill:#01c58d;}.c,.d,.e{fill:#31353f;}.d{font-size:12px;}.d,.e,.f,.g{font-family:SourceSansPro-Semibold, Source Sans Pro;font-weight:600;}.e{font-size:14px;}.e,.f,.g{letter-spacing:-0.03em;}.f,.g{fill:#b2b2b2;}.f{font-size:15px;}.g{font-size:16px;}</style></defs><g transform="translate(0)"><path class="a" d="M989.88,337.05h0l-33.615,33.614h0a48.462,48.462,0,0,1,0,68.536h0l33.614,33.614.013-.013A96,96,0,0,0,989.88,337.05Z" transform="translate(-825.998 -308.932)"/><path class="b" d="M883.371,439.2h0a48.462,48.462,0,0,1,0-68.536L849.757,337.05l-.016.016a96,96,0,0,0,.015,135.749h0Z" transform="translate(-821.639 -308.932)"/><path class="a" d="M986.462,336.109a96,96,0,0,0-135.75-.015l-.015.015,33.614,33.614h0a48.462,48.462,0,0,1,68.536,0h0l33.614-33.615Z" transform="translate(-822.58 -307.992)"/><path class="c" d="M909.675,421.433l-63.537-13.247h0l63.537-13.247c6.683,0,12.1,5.93,12.1,13.247h0C921.776,415.5,916.357,421.433,909.675,421.433Z" transform="translate(-815.272 -310.807)"/><text class="d" transform="translate(84.218 164.56)"><tspan x="0" y="0">Risk</tspan></text><text class="e" transform="translate(17.635 99.645)"><tspan x="0" y="0">₹</tspan></text><text class="f" transform="translate(155.382 100.645)"><tspan x="0" y="0">₹₹₹</tspan></text><text class="g" transform="translate(88.654 31.174)"><tspan x="0" y="0">₹₹</tspan></text></g></svg>