<svg xmlns="http://www.w3.org/2000/svg" width="200" height="200" viewBox="0 0 200 200">
  <g id="Group_4076" data-name="Group 4076" transform="translate(-175 -258)">
    <rect id="Rectangle_1568" data-name="Rectangle 1568" width="200" height="200" transform="translate(175 258)" fill="#fff" opacity="0"/>
    <g id="Group_4066" data-name="Group 4066">
      <g id="Group_4060" data-name="Group 4060" transform="translate(216.5 322.588)">
        <path id="Path_487" data-name="Path 487" d="M314.746,412.72s-17.7-13.341-35.971-.93c0,0-19.217-14.609-45.769-.642,0,0-17.955-11.215-36.226,1.766,0,0,9.722-40.114,60.274-41.49C257.051,371.425,306.685,372.277,314.746,412.72Z" transform="translate(-196.777 -363.895)" fill="#ffc32c"/>
        <path id="Path_490" data-name="Path 490" d="M250.9,371.576s-29.855,6.952-23.913,39.862" transform="translate(-191.823 -363.858)" fill="none" stroke="#31353f" stroke-linecap="round" stroke-linejoin="round" stroke-width="1"/>
        <path id="Path_491" data-name="Path 491" d="M247.636,371.576s27.836,10.207,22.573,39.951" transform="translate(-188.214 -363.858)" fill="none" stroke="#31353f" stroke-linecap="round" stroke-linejoin="round" stroke-width="1"/>
        <line id="Line_196" data-name="Line 196" x1="0.035" y2="7.845" transform="translate(59.168)" fill="none" stroke="#31353f" stroke-linecap="round" stroke-linejoin="round" stroke-width="1"/>
        <path id="Path_489" data-name="Path 489" d="M196.777,412.859s8.934-39.7,59.169-41.181c0,0,48.757-2.365,58.8,40.987,0,0-18.448-14.453-35.971-.929,0,0-22.1-15.48-46.972.086C231.8,411.822,221.008,398.7,196.777,412.859Z" transform="translate(-196.777 -363.839)" fill="none" stroke="#31353f" stroke-linecap="round" stroke-linejoin="round" stroke-width="1"/>
      </g>
      <g id="Group_4062" data-name="Group 4062" transform="translate(-34.17 -286.594)">
        <path id="Path_890" data-name="Path 890" d="M97.065,71.826c0-2.241-6.9-5.523-15.552-5.523S66.2,70.2,66.2,72.437c0,.051-.008-.051,0,0l.257,20.223c0,1.5,6.771,6.678,15.478,6.678,8.6,0,15.638-4.819,15.638-6.314Z" transform="translate(263.238 602.824)" fill="#ffc32c"/>
        <path id="Path_843" data-name="Path 843" d="M78.5,1.8" transform="translate(269.54 662.225)" fill="none" stroke="#31353f" stroke-linecap="round" stroke-miterlimit="10" stroke-width="1"/>
        <line id="Line_211" data-name="Line 211" y1="6.236" transform="translate(258.5 689.215)" fill="none" stroke="#31353f" stroke-linecap="round" stroke-miterlimit="10" stroke-width="1"/>
        <line id="Line_212" data-name="Line 212" y2="5.936" transform="translate(289.155 689.577)" fill="none" stroke="#31353f" stroke-linecap="round" stroke-miterlimit="10" stroke-width="1"/>
        <path id="Path_841" data-name="Path 841" d="M1.7,107.2c0,2.8,6.812,6.712,15.327,6.712S32.355,110,32.355,107.2" transform="translate(256.8 588.25)" fill="none" stroke="#31353f" stroke-linecap="round" stroke-miterlimit="10" stroke-width="1"/>
        <line id="Line_216" data-name="Line 216" y1="11.379" transform="translate(294.164 684.072)" fill="none" stroke="#31353f" stroke-linecap="round" stroke-miterlimit="10" stroke-width="1"/>
        <line id="Line_217" data-name="Line 217" y2="12.357" transform="translate(324.82 683.094)" fill="none" stroke="#31353f" stroke-linecap="round" stroke-miterlimit="10" stroke-width="1"/>
        <path id="Path_844" data-name="Path 844" d="M1.7,100.5c0,4.208,6.812,7.614,15.327,7.614s15.327-3.406,15.327-7.614" transform="translate(292.464 588.238)" fill="none" stroke="#31353f" stroke-linecap="round" stroke-miterlimit="10" stroke-width="1"/>
        <path id="Path_845" data-name="Path 845" d="M1.7,107.2c0,2.8,6.812,6.712,15.327,6.712S32.355,110,32.355,107.2" transform="translate(292.464 588.25)" fill="none" stroke="#31353f" stroke-linecap="round" stroke-miterlimit="10" stroke-width="1"/>
        <line id="Line_218" data-name="Line 218" y1="18.992" transform="translate(329.827 676.459)" fill="none" stroke="#31353f" stroke-linecap="round" stroke-miterlimit="10" stroke-width="1"/>
        <line id="Line_219" data-name="Line 219" y2="18.691" transform="translate(360.383 676.76)" fill="none" stroke="#31353f" stroke-linecap="round" stroke-miterlimit="10" stroke-width="1"/>
        <path id="Path_846" data-name="Path 846" d="M1.7,100.5c0,4.208,6.812,7.614,15.327,7.614s15.327-3.406,15.327-7.614" transform="translate(328.128 588.238)" fill="none" stroke="#31353f" stroke-linecap="round" stroke-miterlimit="10" stroke-width="1"/>
        <path id="Path_848" data-name="Path 848" d="M1.7,100.5c0,4.208,6.812,7.614,15.327,7.614s15.327-3.406,15.327-7.614" transform="translate(328.128 581.938)" fill="none" stroke="#31353f" stroke-linecap="round" stroke-miterlimit="10" stroke-width="1"/>
        <path id="Path_847" data-name="Path 847" d="M1.7,107.2c0,2.8,6.812,6.712,15.327,6.712S32.355,110,32.355,107.2" transform="translate(328.128 588.25)" fill="none" stroke="#31353f" stroke-linecap="round" stroke-miterlimit="10" stroke-width="1"/>
        <ellipse id="Ellipse_162" data-name="Ellipse 162" cx="15.327" cy="7.614" rx="15.327" ry="7.614" transform="translate(329.827 668.846)" fill="none" stroke="#31353f" stroke-linecap="round" stroke-miterlimit="10" stroke-width="1"/>
        <ellipse id="Ellipse_170" data-name="Ellipse 170" cx="15.327" cy="7.614" rx="15.327" ry="7.614" transform="translate(294.164 674.988)" fill="none" stroke="#31353f" stroke-linecap="round" stroke-miterlimit="10" stroke-width="1"/>
        <ellipse id="Ellipse_171" data-name="Ellipse 171" cx="15.327" cy="7.614" rx="15.327" ry="7.614" transform="translate(258.5 681.125)" fill="none" stroke="#31353f" stroke-linecap="round" stroke-miterlimit="10" stroke-width="1"/>
      </g>
      <path id="Path_890-2" data-name="Path 890" d="M-10.59,0V-7.872h2.46a5.087,5.087,0,0,1,1.11.114,2.358,2.358,0,0,1,.876.378,1.8,1.8,0,0,1,.57.684,2.349,2.349,0,0,1,.2,1.032,2.17,2.17,0,0,1-.48,1.476,2.451,2.451,0,0,1-1.3.756l2,3.432H-6.27l-1.9-3.324H-9.594V0Zm1-4.14h1.32a2.287,2.287,0,0,0,1.416-.378,1.354,1.354,0,0,0,.492-1.146,1.191,1.191,0,0,0-.492-1.092,2.655,2.655,0,0,0-1.416-.312h-1.32ZM-3.762,0V-7.872h1V0Zm5.34.144A3.766,3.766,0,0,1,.042-.168,3.783,3.783,0,0,1-1.182-1.02l.6-.7A3.283,3.283,0,0,0,.408-1a2.73,2.73,0,0,0,1.182.27A1.862,1.862,0,0,0,2.8-1.086a1.144,1.144,0,0,0,.432-.93,1.159,1.159,0,0,0-.1-.51,1.11,1.11,0,0,0-.276-.36,2,2,0,0,0-.414-.27q-.24-.12-.516-.252L.8-3.9a5.378,5.378,0,0,1-.564-.288A2.321,2.321,0,0,1-.282-4.6a1.952,1.952,0,0,1-.372-.57A1.89,1.89,0,0,1-.8-5.928a1.874,1.874,0,0,1,.186-.828A2.035,2.035,0,0,1-.1-7.422a2.393,2.393,0,0,1,.78-.438,3.005,3.005,0,0,1,.99-.156,3.15,3.15,0,0,1,1.308.27,3.283,3.283,0,0,1,1.02.7l-.54.648a2.806,2.806,0,0,0-.8-.546,2.378,2.378,0,0,0-.99-.2,1.708,1.708,0,0,0-1.062.306,1,1,0,0,0-.4.846A.96.96,0,0,0,.324-5.5a1.2,1.2,0,0,0,.306.348,2.485,2.485,0,0,0,.42.264q.228.114.468.21l1.116.48a4.772,4.772,0,0,1,.636.33,2.278,2.278,0,0,1,.516.432,1.88,1.88,0,0,1,.342.576,2.128,2.128,0,0,1,.126.762,2.087,2.087,0,0,1-.186.876,2.107,2.107,0,0,1-.534.714,2.536,2.536,0,0,1-.84.48A3.335,3.335,0,0,1,1.578.144ZM5.8,0V-7.872h1v3.948h.036L10.11-7.872h1.128l-2.46,3L11.622,0H10.506L8.154-4.092,6.8-2.5V0Z" transform="translate(332.016 317.445) rotate(-90)" fill="#31353f"/>
      <path id="Path_891" data-name="Path 891" d="M-10.59,0V-7.872h2.46a5.087,5.087,0,0,1,1.11.114,2.358,2.358,0,0,1,.876.378,1.8,1.8,0,0,1,.57.684,2.349,2.349,0,0,1,.2,1.032,2.17,2.17,0,0,1-.48,1.476,2.451,2.451,0,0,1-1.3.756l2,3.432H-6.27l-1.9-3.324H-9.594V0Zm1-4.14h1.32a2.287,2.287,0,0,0,1.416-.378,1.354,1.354,0,0,0,.492-1.146,1.191,1.191,0,0,0-.492-1.092,2.655,2.655,0,0,0-1.416-.312h-1.32ZM-3.762,0V-7.872h1V0Zm5.34.144A3.766,3.766,0,0,1,.042-.168,3.783,3.783,0,0,1-1.182-1.02l.6-.7A3.283,3.283,0,0,0,.408-1a2.73,2.73,0,0,0,1.182.27A1.862,1.862,0,0,0,2.8-1.086a1.144,1.144,0,0,0,.432-.93,1.159,1.159,0,0,0-.1-.51,1.11,1.11,0,0,0-.276-.36,2,2,0,0,0-.414-.27q-.24-.12-.516-.252L.8-3.9a5.378,5.378,0,0,1-.564-.288A2.321,2.321,0,0,1-.282-4.6a1.952,1.952,0,0,1-.372-.57A1.89,1.89,0,0,1-.8-5.928a1.874,1.874,0,0,1,.186-.828A2.035,2.035,0,0,1-.1-7.422a2.393,2.393,0,0,1,.78-.438,3.005,3.005,0,0,1,.99-.156,3.15,3.15,0,0,1,1.308.27,3.283,3.283,0,0,1,1.02.7l-.54.648a2.806,2.806,0,0,0-.8-.546,2.378,2.378,0,0,0-.99-.2,1.708,1.708,0,0,0-1.062.306,1,1,0,0,0-.4.846A.96.96,0,0,0,.324-5.5a1.2,1.2,0,0,0,.306.348,2.485,2.485,0,0,0,.42.264q.228.114.468.21l1.116.48a4.772,4.772,0,0,1,.636.33,2.278,2.278,0,0,1,.516.432,1.88,1.88,0,0,1,.342.576,2.128,2.128,0,0,1,.126.762,2.087,2.087,0,0,1-.186.876,2.107,2.107,0,0,1-.534.714,2.536,2.536,0,0,1-.84.48A3.335,3.335,0,0,1,1.578.144ZM5.8,0V-7.872h1v3.948h.036L10.11-7.872h1.128l-2.46,3L11.622,0H10.506L8.154-4.092,6.8-2.5V0Z" transform="translate(278.437 292.77) rotate(-90)" fill="#31353f"/>
      <path id="Path_892" data-name="Path 892" d="M-10.59,0V-7.872h2.46a5.087,5.087,0,0,1,1.11.114,2.358,2.358,0,0,1,.876.378,1.8,1.8,0,0,1,.57.684,2.349,2.349,0,0,1,.2,1.032,2.17,2.17,0,0,1-.48,1.476,2.451,2.451,0,0,1-1.3.756l2,3.432H-6.27l-1.9-3.324H-9.594V0Zm1-4.14h1.32a2.287,2.287,0,0,0,1.416-.378,1.354,1.354,0,0,0,.492-1.146,1.191,1.191,0,0,0-.492-1.092,2.655,2.655,0,0,0-1.416-.312h-1.32ZM-3.762,0V-7.872h1V0Zm5.34.144A3.766,3.766,0,0,1,.042-.168,3.783,3.783,0,0,1-1.182-1.02l.6-.7A3.283,3.283,0,0,0,.408-1a2.73,2.73,0,0,0,1.182.27A1.862,1.862,0,0,0,2.8-1.086a1.144,1.144,0,0,0,.432-.93,1.159,1.159,0,0,0-.1-.51,1.11,1.11,0,0,0-.276-.36,2,2,0,0,0-.414-.27q-.24-.12-.516-.252L.8-3.9a5.378,5.378,0,0,1-.564-.288A2.321,2.321,0,0,1-.282-4.6a1.952,1.952,0,0,1-.372-.57A1.89,1.89,0,0,1-.8-5.928a1.874,1.874,0,0,1,.186-.828A2.035,2.035,0,0,1-.1-7.422a2.393,2.393,0,0,1,.78-.438,3.005,3.005,0,0,1,.99-.156,3.15,3.15,0,0,1,1.308.27,3.283,3.283,0,0,1,1.02.7l-.54.648a2.806,2.806,0,0,0-.8-.546,2.378,2.378,0,0,0-.99-.2,1.708,1.708,0,0,0-1.062.306,1,1,0,0,0-.4.846A.96.96,0,0,0,.324-5.5a1.2,1.2,0,0,0,.306.348,2.485,2.485,0,0,0,.42.264q.228.114.468.21l1.116.48a4.772,4.772,0,0,1,.636.33,2.278,2.278,0,0,1,.516.432,1.88,1.88,0,0,1,.342.576,2.128,2.128,0,0,1,.126.762,2.087,2.087,0,0,1-.186.876,2.107,2.107,0,0,1-.534.714,2.536,2.536,0,0,1-.84.48A3.335,3.335,0,0,1,1.578.144ZM5.8,0V-7.872h1v3.948h.036L10.11-7.872h1.128l-2.46,3L11.622,0H10.506L8.154-4.092,6.8-2.5V0Z" transform="translate(226.918 317.445) rotate(-90)" fill="#31353f"/>
      <g id="Group_4063" data-name="Group 4063" transform="translate(216.5 322.588)">
        <path id="Path_487-2" data-name="Path 487" d="M314.746,412.72s-17.7-13.341-35.971-.93c0,0-19.217-14.609-45.769-.642,0,0-17.955-11.215-36.226,1.766,0,0,9.722-40.114,60.274-41.49C257.051,371.425,306.685,372.277,314.746,412.72Z" transform="translate(-196.777 -363.895)" fill="#ffc32c"/>
        <path id="Path_490-2" data-name="Path 490" d="M250.9,371.576s-29.855,6.952-23.913,39.862" transform="translate(-191.823 -363.858)" fill="none" stroke="#31353f" stroke-linecap="round" stroke-linejoin="round" stroke-width="1"/>
        <path id="Path_491-2" data-name="Path 491" d="M247.636,371.576s27.836,10.207,22.573,39.951" transform="translate(-188.214 -363.858)" fill="none" stroke="#31353f" stroke-linecap="round" stroke-linejoin="round" stroke-width="1"/>
        <line id="Line_196-2" data-name="Line 196" x1="0.035" y2="7.845" transform="translate(59.168)" fill="none" stroke="#31353f" stroke-linecap="round" stroke-linejoin="round" stroke-width="1"/>
        <path id="Path_489-2" data-name="Path 489" d="M196.777,412.859s8.934-39.7,59.169-41.181c0,0,48.757-2.365,58.8,40.987,0,0-18.448-14.453-35.971-.929,0,0-22.1-15.48-46.972.086C231.8,411.822,221.008,398.7,196.777,412.859Z" transform="translate(-196.777 -363.839)" fill="none" stroke="#31353f" stroke-linecap="round" stroke-linejoin="round" stroke-width="1"/>
      </g>
      <g id="Group_4065" data-name="Group 4065" transform="translate(-34.17 -286.594)">
        <path id="Path_890-3" data-name="Path 890" d="M97.065,71.826c0-2.241-6.9-5.523-15.552-5.523S66.2,70.2,66.2,72.437c0,.051-.008-.051,0,0l.257,20.223c0,1.5,6.771,6.678,15.478,6.678,8.6,0,15.638-4.819,15.638-6.314Z" transform="translate(263.238 602.824)" fill="#ffc32c"/>
        <path id="Path_843-2" data-name="Path 843" d="M78.5,1.8" transform="translate(269.54 662.225)" fill="none" stroke="#31353f" stroke-linecap="round" stroke-miterlimit="10" stroke-width="1"/>
        <line id="Line_211-2" data-name="Line 211" y1="6.236" transform="translate(258.5 689.215)" fill="none" stroke="#31353f" stroke-linecap="round" stroke-miterlimit="10" stroke-width="1"/>
        <line id="Line_212-2" data-name="Line 212" y2="5.936" transform="translate(289.155 689.577)" fill="none" stroke="#31353f" stroke-linecap="round" stroke-miterlimit="10" stroke-width="1"/>
        <path id="Path_841-2" data-name="Path 841" d="M1.7,107.2c0,2.8,6.812,6.712,15.327,6.712S32.355,110,32.355,107.2" transform="translate(256.8 588.25)" fill="none" stroke="#31353f" stroke-linecap="round" stroke-miterlimit="10" stroke-width="1"/>
        <line id="Line_216-2" data-name="Line 216" y1="11.379" transform="translate(294.164 684.072)" fill="none" stroke="#31353f" stroke-linecap="round" stroke-miterlimit="10" stroke-width="1"/>
        <line id="Line_217-2" data-name="Line 217" y2="12.357" transform="translate(324.82 683.094)" fill="none" stroke="#31353f" stroke-linecap="round" stroke-miterlimit="10" stroke-width="1"/>
        <path id="Path_844-2" data-name="Path 844" d="M1.7,100.5c0,4.208,6.812,7.614,15.327,7.614s15.327-3.406,15.327-7.614" transform="translate(292.464 588.238)" fill="none" stroke="#31353f" stroke-linecap="round" stroke-miterlimit="10" stroke-width="1"/>
        <path id="Path_845-2" data-name="Path 845" d="M1.7,107.2c0,2.8,6.812,6.712,15.327,6.712S32.355,110,32.355,107.2" transform="translate(292.464 588.25)" fill="none" stroke="#31353f" stroke-linecap="round" stroke-miterlimit="10" stroke-width="1"/>
        <line id="Line_218-2" data-name="Line 218" y1="18.992" transform="translate(329.827 676.459)" fill="none" stroke="#31353f" stroke-linecap="round" stroke-miterlimit="10" stroke-width="1"/>
        <line id="Line_219-2" data-name="Line 219" y2="18.691" transform="translate(360.383 676.76)" fill="none" stroke="#31353f" stroke-linecap="round" stroke-miterlimit="10" stroke-width="1"/>
        <path id="Path_846-2" data-name="Path 846" d="M1.7,100.5c0,4.208,6.812,7.614,15.327,7.614s15.327-3.406,15.327-7.614" transform="translate(328.128 588.238)" fill="none" stroke="#31353f" stroke-linecap="round" stroke-miterlimit="10" stroke-width="1"/>
        <path id="Path_848-2" data-name="Path 848" d="M1.7,100.5c0,4.208,6.812,7.614,15.327,7.614s15.327-3.406,15.327-7.614" transform="translate(328.128 581.938)" fill="none" stroke="#31353f" stroke-linecap="round" stroke-miterlimit="10" stroke-width="1"/>
        <path id="Path_847-2" data-name="Path 847" d="M1.7,107.2c0,2.8,6.812,6.712,15.327,6.712S32.355,110,32.355,107.2" transform="translate(328.128 588.25)" fill="none" stroke="#31353f" stroke-linecap="round" stroke-miterlimit="10" stroke-width="1"/>
        <ellipse id="Ellipse_162-2" data-name="Ellipse 162" cx="15.327" cy="7.614" rx="15.327" ry="7.614" transform="translate(329.827 668.846)" fill="none" stroke="#31353f" stroke-linecap="round" stroke-miterlimit="10" stroke-width="1"/>
        <ellipse id="Ellipse_170-2" data-name="Ellipse 170" cx="15.327" cy="7.614" rx="15.327" ry="7.614" transform="translate(294.164 674.988)" fill="none" stroke="#31353f" stroke-linecap="round" stroke-miterlimit="10" stroke-width="1"/>
        <ellipse id="Ellipse_171-2" data-name="Ellipse 171" cx="15.327" cy="7.614" rx="15.327" ry="7.614" transform="translate(258.5 681.125)" fill="none" stroke="#31353f" stroke-linecap="round" stroke-miterlimit="10" stroke-width="1"/>
      </g>
      <path id="Path_893" data-name="Path 893" d="M-10.59,0V-7.872h2.46a5.087,5.087,0,0,1,1.11.114,2.358,2.358,0,0,1,.876.378,1.8,1.8,0,0,1,.57.684,2.349,2.349,0,0,1,.2,1.032,2.17,2.17,0,0,1-.48,1.476,2.451,2.451,0,0,1-1.3.756l2,3.432H-6.27l-1.9-3.324H-9.594V0Zm1-4.14h1.32a2.287,2.287,0,0,0,1.416-.378,1.354,1.354,0,0,0,.492-1.146,1.191,1.191,0,0,0-.492-1.092,2.655,2.655,0,0,0-1.416-.312h-1.32ZM-3.762,0V-7.872h1V0Zm5.34.144A3.766,3.766,0,0,1,.042-.168,3.783,3.783,0,0,1-1.182-1.02l.6-.7A3.283,3.283,0,0,0,.408-1a2.73,2.73,0,0,0,1.182.27A1.862,1.862,0,0,0,2.8-1.086a1.144,1.144,0,0,0,.432-.93,1.159,1.159,0,0,0-.1-.51,1.11,1.11,0,0,0-.276-.36,2,2,0,0,0-.414-.27q-.24-.12-.516-.252L.8-3.9a5.378,5.378,0,0,1-.564-.288A2.321,2.321,0,0,1-.282-4.6a1.952,1.952,0,0,1-.372-.57A1.89,1.89,0,0,1-.8-5.928a1.874,1.874,0,0,1,.186-.828A2.035,2.035,0,0,1-.1-7.422a2.393,2.393,0,0,1,.78-.438,3.005,3.005,0,0,1,.99-.156,3.15,3.15,0,0,1,1.308.27,3.283,3.283,0,0,1,1.02.7l-.54.648a2.806,2.806,0,0,0-.8-.546,2.378,2.378,0,0,0-.99-.2,1.708,1.708,0,0,0-1.062.306,1,1,0,0,0-.4.846A.96.96,0,0,0,.324-5.5a1.2,1.2,0,0,0,.306.348,2.485,2.485,0,0,0,.42.264q.228.114.468.21l1.116.48a4.772,4.772,0,0,1,.636.33,2.278,2.278,0,0,1,.516.432,1.88,1.88,0,0,1,.342.576,2.128,2.128,0,0,1,.126.762,2.087,2.087,0,0,1-.186.876,2.107,2.107,0,0,1-.534.714,2.536,2.536,0,0,1-.84.48A3.335,3.335,0,0,1,1.578.144ZM5.8,0V-7.872h1v3.948h.036L10.11-7.872h1.128l-2.46,3L11.622,0H10.506L8.154-4.092,6.8-2.5V0Z" transform="translate(332.016 317.445) rotate(-90)" fill="#31353f"/>
      <path id="Path_894" data-name="Path 894" d="M-10.59,0V-7.872h2.46a5.087,5.087,0,0,1,1.11.114,2.358,2.358,0,0,1,.876.378,1.8,1.8,0,0,1,.57.684,2.349,2.349,0,0,1,.2,1.032,2.17,2.17,0,0,1-.48,1.476,2.451,2.451,0,0,1-1.3.756l2,3.432H-6.27l-1.9-3.324H-9.594V0Zm1-4.14h1.32a2.287,2.287,0,0,0,1.416-.378,1.354,1.354,0,0,0,.492-1.146,1.191,1.191,0,0,0-.492-1.092,2.655,2.655,0,0,0-1.416-.312h-1.32ZM-3.762,0V-7.872h1V0Zm5.34.144A3.766,3.766,0,0,1,.042-.168,3.783,3.783,0,0,1-1.182-1.02l.6-.7A3.283,3.283,0,0,0,.408-1a2.73,2.73,0,0,0,1.182.27A1.862,1.862,0,0,0,2.8-1.086a1.144,1.144,0,0,0,.432-.93,1.159,1.159,0,0,0-.1-.51,1.11,1.11,0,0,0-.276-.36,2,2,0,0,0-.414-.27q-.24-.12-.516-.252L.8-3.9a5.378,5.378,0,0,1-.564-.288A2.321,2.321,0,0,1-.282-4.6a1.952,1.952,0,0,1-.372-.57A1.89,1.89,0,0,1-.8-5.928a1.874,1.874,0,0,1,.186-.828A2.035,2.035,0,0,1-.1-7.422a2.393,2.393,0,0,1,.78-.438,3.005,3.005,0,0,1,.99-.156,3.15,3.15,0,0,1,1.308.27,3.283,3.283,0,0,1,1.02.7l-.54.648a2.806,2.806,0,0,0-.8-.546,2.378,2.378,0,0,0-.99-.2,1.708,1.708,0,0,0-1.062.306,1,1,0,0,0-.4.846A.96.96,0,0,0,.324-5.5a1.2,1.2,0,0,0,.306.348,2.485,2.485,0,0,0,.42.264q.228.114.468.21l1.116.48a4.772,4.772,0,0,1,.636.33,2.278,2.278,0,0,1,.516.432,1.88,1.88,0,0,1,.342.576,2.128,2.128,0,0,1,.126.762,2.087,2.087,0,0,1-.186.876,2.107,2.107,0,0,1-.534.714,2.536,2.536,0,0,1-.84.48A3.335,3.335,0,0,1,1.578.144ZM5.8,0V-7.872h1v3.948h.036L10.11-7.872h1.128l-2.46,3L11.622,0H10.506L8.154-4.092,6.8-2.5V0Z" transform="translate(278.437 292.77) rotate(-90)" fill="#31353f"/>
      <path id="Path_895" data-name="Path 895" d="M-10.59,0V-7.872h2.46a5.087,5.087,0,0,1,1.11.114,2.358,2.358,0,0,1,.876.378,1.8,1.8,0,0,1,.57.684,2.349,2.349,0,0,1,.2,1.032,2.17,2.17,0,0,1-.48,1.476,2.451,2.451,0,0,1-1.3.756l2,3.432H-6.27l-1.9-3.324H-9.594V0Zm1-4.14h1.32a2.287,2.287,0,0,0,1.416-.378,1.354,1.354,0,0,0,.492-1.146,1.191,1.191,0,0,0-.492-1.092,2.655,2.655,0,0,0-1.416-.312h-1.32ZM-3.762,0V-7.872h1V0Zm5.34.144A3.766,3.766,0,0,1,.042-.168,3.783,3.783,0,0,1-1.182-1.02l.6-.7A3.283,3.283,0,0,0,.408-1a2.73,2.73,0,0,0,1.182.27A1.862,1.862,0,0,0,2.8-1.086a1.144,1.144,0,0,0,.432-.93,1.159,1.159,0,0,0-.1-.51,1.11,1.11,0,0,0-.276-.36,2,2,0,0,0-.414-.27q-.24-.12-.516-.252L.8-3.9a5.378,5.378,0,0,1-.564-.288A2.321,2.321,0,0,1-.282-4.6a1.952,1.952,0,0,1-.372-.57A1.89,1.89,0,0,1-.8-5.928a1.874,1.874,0,0,1,.186-.828A2.035,2.035,0,0,1-.1-7.422a2.393,2.393,0,0,1,.78-.438,3.005,3.005,0,0,1,.99-.156,3.15,3.15,0,0,1,1.308.27,3.283,3.283,0,0,1,1.02.7l-.54.648a2.806,2.806,0,0,0-.8-.546,2.378,2.378,0,0,0-.99-.2,1.708,1.708,0,0,0-1.062.306,1,1,0,0,0-.4.846A.96.96,0,0,0,.324-5.5a1.2,1.2,0,0,0,.306.348,2.485,2.485,0,0,0,.42.264q.228.114.468.21l1.116.48a4.772,4.772,0,0,1,.636.33,2.278,2.278,0,0,1,.516.432,1.88,1.88,0,0,1,.342.576,2.128,2.128,0,0,1,.126.762,2.087,2.087,0,0,1-.186.876,2.107,2.107,0,0,1-.534.714,2.536,2.536,0,0,1-.84.48A3.335,3.335,0,0,1,1.578.144ZM5.8,0V-7.872h1v3.948h.036L10.11-7.872h1.128l-2.46,3L11.622,0H10.506L8.154-4.092,6.8-2.5V0Z" transform="translate(226.918 317.445) rotate(-90)" fill="#31353f"/>
      <text id="_" data-name="₹" transform="translate(239 407)" fill="#31353f" font-size="15" font-family="SourceSansPro-Regular, Source Sans Pro"><tspan x="-3.727" y="0">₹</tspan></text>
      <text id="_2" data-name="₹" transform="translate(275 400)" fill="#31353f" font-size="15" font-family="SourceSansPro-Regular, Source Sans Pro"><tspan x="-3.727" y="0">₹</tspan></text>
      <text id="_3" data-name="₹" transform="translate(311 395)" fill="#31353f" font-size="15" font-family="SourceSansPro-Regular, Source Sans Pro"><tspan x="-3.727" y="0">₹</tspan></text>
    </g>
  </g>
</svg>
