<svg xmlns="http://www.w3.org/2000/svg" width="180" height="180" viewBox="0 0 180 180">
  <g id="Group_3955" data-name="Group 3955" transform="translate(2881.207 -965)">
    <g id="Group_3780" data-name="Group 3780" transform="translate(-2859.519 990.388)">
      <path id="Path_854" data-name="Path 854" d="M104.275,62.127c0-3.388-8.541-6.808-19.034-6.808s-18.969,3.42-18.969,6.808a1.87,1.87,0,0,0,.035.23l-.112,57.584c0,2.261,8.521,6.93,19.079,6.93,10.432,0,19.107-5.453,19.107-7.714Z" transform="translate(32.45 0.231)" fill="#ffc32c"/>
      <g id="Group_3779" data-name="Group 3779" transform="translate(0 0)">
        <g id="Group_3751" data-name="Group 3751" transform="translate(0)">
          <line id="Line_206" data-name="Line 206" y1="30.675" x2="30.551" transform="matrix(0.966, 0.259, -0.259, 0.966, 7.939, 44.391)" fill="none" stroke="#31353f" stroke-linecap="round" stroke-miterlimit="10" stroke-width="1"/>
          <line id="Line_204" data-name="Line 204" y1="50.794" x2="50.546" transform="matrix(0.966, 0.259, -0.259, 0.966, 40.481, 18.91)" fill="none" stroke="#31353f" stroke-linecap="round" stroke-miterlimit="10" stroke-width="1"/>
          <line id="Line_205" data-name="Line 205" x1="60.854" y2="61.226" transform="matrix(0.966, 0.259, -0.259, 0.966, 74.991, 0)" fill="none" stroke="#31353f" stroke-linecap="round" stroke-miterlimit="10" stroke-width="1"/>
          <path id="Path_826" data-name="Path 826" d="M0,0,16.393.248a1.378,1.378,0,0,1,1.366,1.366V18.38" transform="matrix(0.966, 0.259, -0.259, 0.966, 118.019, 10.244)" fill="none" stroke="#31353f" stroke-linecap="round" stroke-miterlimit="10" stroke-width="1"/>
        </g>
        <g id="Group_3755" data-name="Group 3755" transform="translate(10.402 54.969)">
          <line id="Line_203" data-name="Line 203" y1="54.374" transform="translate(88.424 9.439)" fill="none" stroke="#31353f" stroke-linecap="round" stroke-miterlimit="10" stroke-width="1"/>
          <line id="Line_202" data-name="Line 202" y2="54.374" transform="translate(126.303 9.439)" fill="none" stroke="#31353f" stroke-linecap="round" stroke-miterlimit="10" stroke-width="1"/>
          <path id="Path_817" data-name="Path 817" d="M72.9,69.9c0,5.216,8.445,9.439,19,9.439,10.432,0,19-4.223,19-9.439" transform="translate(15.525 -52.411)" fill="none" stroke="#31353f" stroke-linecap="round" stroke-miterlimit="10" stroke-width="1"/>
          <path id="Path_818" data-name="Path 818" d="M72.9,75c0,5.216,8.445,9.439,19,9.439,10.432,0,19-4.223,19-9.439" transform="translate(15.525 -51.177)" fill="none" stroke="#31353f" stroke-linecap="round" stroke-miterlimit="10" stroke-width="1"/>
          <path id="Path_814" data-name="Path 814" d="M72.9,80.1c0,5.216,8.445,9.439,19,9.439,10.432,0,19-4.223,19-9.439" transform="translate(15.525 -49.943)" fill="none" stroke="#31353f" stroke-linecap="round" stroke-miterlimit="10" stroke-width="1"/>
          <path id="Path_815" data-name="Path 815" d="M72.9,85.2c0,5.216,8.445,9.439,19,9.439,10.432,0,19-4.223,19-9.439" transform="translate(15.525 -48.709)" fill="none" stroke="#31353f" stroke-linecap="round" stroke-miterlimit="10" stroke-width="1"/>
          <path id="Path_816" data-name="Path 816" d="M72.9,90.3c0,5.216,8.445,9.439,19,9.439,10.432,0,19-4.223,19-9.439" transform="translate(15.525 -47.475)" fill="none" stroke="#31353f" stroke-linecap="round" stroke-miterlimit="10" stroke-width="1"/>
          <path id="Path_811" data-name="Path 811" d="M72.9,95.4c0,5.216,8.445,9.439,19,9.439,10.432,0,19-4.223,19-9.439" transform="translate(15.525 -46.242)" fill="none" stroke="#31353f" stroke-linecap="round" stroke-miterlimit="10" stroke-width="1"/>
          <path id="Path_812" data-name="Path 812" d="M72.9,100.5c0,5.216,8.445,9.439,19,9.439,10.432,0,19-4.222,19-9.439" transform="translate(15.525 -45.008)" fill="none" stroke="#31353f" stroke-linecap="round" stroke-miterlimit="10" stroke-width="1"/>
          <path id="Path_813" data-name="Path 813" d="M72.9,107.2c0,3.477,8.445,8.321,19,8.321,10.432,0,19-4.843,19-8.321" transform="translate(15.525 -43.387)" fill="none" stroke="#31353f" stroke-linecap="round" stroke-miterlimit="10" stroke-width="1"/>
          <line id="Line_112" data-name="Line 112" y1="27.322" transform="translate(44.212 36.491)" fill="none" stroke="#31353f" stroke-linecap="round" stroke-miterlimit="10" stroke-width="1"/>
          <line id="Line_113" data-name="Line 113" y2="27.322" transform="translate(82.091 36.491)" fill="none" stroke="#31353f" stroke-linecap="round" stroke-miterlimit="10" stroke-width="1"/>
          <path id="Path_439" data-name="Path 439" d="M37.3,90.3c0,5.216,8.445,9.439,19,9.439,10.432,0,19-4.223,19-9.439" transform="translate(6.912 -47.475)" fill="none" stroke="#31353f" stroke-linecap="round" stroke-miterlimit="10" stroke-width="1"/>
          <path id="Path_440" data-name="Path 440" d="M37.3,95.4c0,5.216,8.445,9.439,19,9.439,10.432,0,19-4.223,19-9.439" transform="translate(6.912 -46.242)" fill="none" stroke="#31353f" stroke-linecap="round" stroke-miterlimit="10" stroke-width="1"/>
          <path id="Path_441" data-name="Path 441" d="M37.3,100.5c0,5.216,8.445,9.439,19,9.439,10.432,0,19-4.222,19-9.439" transform="translate(6.912 -45.008)" fill="none" stroke="#31353f" stroke-linecap="round" stroke-miterlimit="10" stroke-width="1"/>
          <path id="Path_442" data-name="Path 442" d="M37.3,107.2c0,3.477,8.445,8.321,19,8.321,10.432,0,19-4.843,19-8.321" transform="translate(6.912 -43.387)" fill="none" stroke="#31353f" stroke-linecap="round" stroke-miterlimit="10" stroke-width="1"/>
          <line id="Line_114" data-name="Line 114" y1="13.661" transform="translate(0 50.152)" fill="none" stroke="#31353f" stroke-linecap="round" stroke-miterlimit="10" stroke-width="1"/>
          <line id="Line_115" data-name="Line 115" y2="13.288" transform="translate(37.879 50.524)" fill="none" stroke="#31353f" stroke-linecap="round" stroke-miterlimit="10" stroke-width="1"/>
          <path id="Path_444" data-name="Path 444" d="M1.7,100.5c0,5.216,8.445,9.439,19,9.439s19-4.222,19-9.439" transform="translate(-1.7 -45.008)" fill="none" stroke="#31353f" stroke-linecap="round" stroke-miterlimit="10" stroke-width="1"/>
          <path id="Path_445" data-name="Path 445" d="M1.7,107.2c0,3.477,8.445,8.321,19,8.321s19-4.843,19-8.321" transform="translate(-1.7 -43.387)" fill="none" stroke="#31353f" stroke-linecap="round" stroke-miterlimit="10" stroke-width="1"/>
          <path id="Path_823" data-name="Path 823" d="M78.5,1.8" transform="translate(32.502 6.748)" fill="none" stroke="#31353f" stroke-linecap="round" stroke-miterlimit="10" stroke-width="1"/>
          <ellipse id="Ellipse_155" data-name="Ellipse 155" cx="19.001" cy="9.439" rx="19.001" ry="9.439" transform="translate(44.212 26.928)" fill="none" stroke="#31353f" stroke-linecap="round" stroke-miterlimit="10" stroke-width="1"/>
          <ellipse id="Ellipse_156" data-name="Ellipse 156" cx="19.001" cy="9.439" rx="19.001" ry="9.439" transform="translate(0 39.72)" fill="none" stroke="#31353f" stroke-linecap="round" stroke-miterlimit="10" stroke-width="1"/>
          <ellipse id="Ellipse_157" data-name="Ellipse 157" cx="19.001" cy="9.439" rx="19.001" ry="9.439" transform="translate(88.424)" fill="none" stroke="#31353f" stroke-linecap="round" stroke-miterlimit="10" stroke-width="1"/>
        </g>
      </g>
    </g>
    <rect id="Rectangle_1527" data-name="Rectangle 1527" width="180" height="180" transform="translate(-2881.207 965)" fill="#fff" opacity="0"/>
  </g>
</svg>
