<svg xmlns="http://www.w3.org/2000/svg" width="180" height="180" viewBox="0 0 180 180">
  <g id="Group_3960" data-name="Group 3960" transform="translate(16560.84 16239)">
    <g id="Group_3784" data-name="Group 3784" transform="translate(-16535.576 -16221.165)">
      <path id="Path_857" data-name="Path 857" d="M104.293,65.116c0-5.22-8.521-9.452-19.029-9.452S66.234,59.9,66.234,65.116c0,.119.025.235.035.354l-.035,91.061c0,3.483,8.457,8.333,19.029,8.333,10.448,0,19.029-4.85,19.029-8.333Z" transform="translate(25.394 -18.862)" fill="#ffc32c"/>
      <g id="Group_3783" data-name="Group 3783" transform="translate(0 0)">
        <g id="Group_3756" data-name="Group 3756" transform="translate(3.075 37.333)">
          <line id="Line_110" data-name="Line 110" y1="90.543" transform="translate(88.553 10.323)" fill="none" stroke="#31353f" stroke-linecap="round" stroke-miterlimit="10" stroke-width="1"/>
          <line id="Line_111" data-name="Line 111" y2="90.543" transform="translate(126.487 10.323)" fill="none" stroke="#31353f" stroke-linecap="round" stroke-miterlimit="10" stroke-width="1"/>
          <ellipse id="Ellipse_42" data-name="Ellipse 42" cx="19.029" cy="9.452" rx="19.029" ry="9.452" transform="translate(88.553)" fill="none" stroke="#31353f" stroke-linecap="round" stroke-miterlimit="10" stroke-width="1"/>
          <path id="Path_421" data-name="Path 421" d="M72.9,39.3c0,5.224,8.457,9.452,19.029,9.452,10.447,0,19.029-4.229,19.029-9.452" transform="translate(15.654 -22.883)" fill="none" stroke="#31353f" stroke-linecap="round" stroke-miterlimit="10" stroke-width="1"/>
          <path id="Path_422" data-name="Path 422" d="M72.9,44.4c0,5.224,8.457,9.452,19.029,9.452,10.447,0,19.029-4.229,19.029-9.452" transform="translate(15.654 -21.64)" fill="none" stroke="#31353f" stroke-linecap="round" stroke-miterlimit="10" stroke-width="1"/>
          <path id="Path_423" data-name="Path 423" d="M72.9,49.5c0,5.224,8.457,9.452,19.029,9.452,10.447,0,19.029-4.229,19.029-9.452" transform="translate(15.654 -20.397)" fill="none" stroke="#31353f" stroke-linecap="round" stroke-miterlimit="10" stroke-width="1"/>
          <path id="Path_424" data-name="Path 424" d="M72.9,54.6c0,5.224,8.457,9.452,19.029,9.452,10.447,0,19.029-4.229,19.029-9.452" transform="translate(15.654 -19.154)" fill="none" stroke="#31353f" stroke-linecap="round" stroke-miterlimit="10" stroke-width="1"/>
          <path id="Path_425" data-name="Path 425" d="M72.9,59.7c0,5.224,8.457,9.452,19.029,9.452,10.447,0,19.029-4.229,19.029-9.452" transform="translate(15.654 -17.911)" fill="none" stroke="#31353f" stroke-linecap="round" stroke-miterlimit="10" stroke-width="1"/>
          <path id="Path_426" data-name="Path 426" d="M72.9,64.8c0,5.224,8.457,9.452,19.029,9.452,10.447,0,19.029-4.229,19.029-9.452" transform="translate(15.654 -16.668)" fill="none" stroke="#31353f" stroke-linecap="round" stroke-miterlimit="10" stroke-width="1"/>
          <path id="Path_427" data-name="Path 427" d="M72.9,69.9c0,5.224,8.457,9.452,19.029,9.452,10.447,0,19.029-4.229,19.029-9.452" transform="translate(15.654 -15.425)" fill="none" stroke="#31353f" stroke-linecap="round" stroke-miterlimit="10" stroke-width="1"/>
          <path id="Path_428" data-name="Path 428" d="M72.9,75c0,5.224,8.457,9.452,19.029,9.452,10.447,0,19.029-4.229,19.029-9.452" transform="translate(15.654 -14.182)" fill="none" stroke="#31353f" stroke-linecap="round" stroke-miterlimit="10" stroke-width="1"/>
          <path id="Path_429" data-name="Path 429" d="M72.9,80.1c0,5.224,8.457,9.452,19.029,9.452,10.447,0,19.029-4.229,19.029-9.452" transform="translate(15.654 -12.939)" fill="none" stroke="#31353f" stroke-linecap="round" stroke-miterlimit="10" stroke-width="1"/>
          <path id="Path_430" data-name="Path 430" d="M72.9,85.2c0,5.224,8.457,9.452,19.029,9.452,10.447,0,19.029-4.229,19.029-9.452" transform="translate(15.654 -11.696)" fill="none" stroke="#31353f" stroke-linecap="round" stroke-miterlimit="10" stroke-width="1"/>
          <path id="Path_431" data-name="Path 431" d="M72.9,90.3c0,5.224,8.457,9.452,19.029,9.452,10.447,0,19.029-4.229,19.029-9.452" transform="translate(15.654 -10.453)" fill="none" stroke="#31353f" stroke-linecap="round" stroke-miterlimit="10" stroke-width="1"/>
          <path id="Path_432" data-name="Path 432" d="M72.9,95.4c0,5.224,8.457,9.452,19.029,9.452,10.447,0,19.029-4.229,19.029-9.452" transform="translate(15.654 -9.21)" fill="none" stroke="#31353f" stroke-linecap="round" stroke-miterlimit="10" stroke-width="1"/>
          <path id="Path_433" data-name="Path 433" d="M72.9,100.5c0,5.224,8.457,9.452,19.029,9.452,10.447,0,19.029-4.229,19.029-9.452" transform="translate(15.654 -7.967)" fill="none" stroke="#31353f" stroke-linecap="round" stroke-miterlimit="10" stroke-width="1"/>
          <path id="Path_434" data-name="Path 434" d="M72.9,107.2c0,3.482,8.457,8.333,19.029,8.333,10.447,0,19.029-4.851,19.029-8.333" transform="translate(15.654 -6.334)" fill="none" stroke="#31353f" stroke-linecap="round" stroke-miterlimit="10" stroke-width="1"/>
          <g id="Group_1268" data-name="Group 1268" transform="translate(44.277 38.431)">
            <line id="Line_112" data-name="Line 112" y1="52.112" transform="translate(0 10.323)" fill="none" stroke="#31353f" stroke-linecap="round" stroke-miterlimit="10" stroke-width="1"/>
            <g id="Group_1267" data-name="Group 1267">
              <line id="Line_113" data-name="Line 113" y2="52.112" transform="translate(37.934 10.323)" fill="none" stroke="#31353f" stroke-linecap="round" stroke-miterlimit="10" stroke-width="1"/>
              <ellipse id="Ellipse_43" data-name="Ellipse 43" cx="19.029" cy="9.452" rx="19.029" ry="9.452" fill="none" stroke="#31353f" stroke-linecap="round" stroke-miterlimit="10" stroke-width="1"/>
              <path id="Path_435" data-name="Path 435" d="M37.3,69.9c0,5.224,8.457,9.452,19.029,9.452,10.447,0,19.029-4.229,19.029-9.452" transform="translate(-37.3 -53.856)" fill="none" stroke="#31353f" stroke-linecap="round" stroke-miterlimit="10" stroke-width="1"/>
              <path id="Path_436" data-name="Path 436" d="M37.3,75c0,5.224,8.457,9.452,19.029,9.452,10.447,0,19.029-4.229,19.029-9.452" transform="translate(-37.3 -52.613)" fill="none" stroke="#31353f" stroke-linecap="round" stroke-miterlimit="10" stroke-width="1"/>
              <path id="Path_437" data-name="Path 437" d="M37.3,80.1c0,5.224,8.457,9.452,19.029,9.452,10.447,0,19.029-4.229,19.029-9.452" transform="translate(-37.3 -51.37)" fill="none" stroke="#31353f" stroke-linecap="round" stroke-miterlimit="10" stroke-width="1"/>
              <path id="Path_438" data-name="Path 438" d="M37.3,85.2c0,5.224,8.457,9.452,19.029,9.452,10.447,0,19.029-4.229,19.029-9.452" transform="translate(-37.3 -50.127)" fill="none" stroke="#31353f" stroke-linecap="round" stroke-miterlimit="10" stroke-width="1"/>
              <path id="Path_439" data-name="Path 439" d="M37.3,90.3c0,5.224,8.457,9.452,19.029,9.452,10.447,0,19.029-4.229,19.029-9.452" transform="translate(-37.3 -48.884)" fill="none" stroke="#31353f" stroke-linecap="round" stroke-miterlimit="10" stroke-width="1"/>
              <path id="Path_440" data-name="Path 440" d="M37.3,95.4c0,5.224,8.457,9.452,19.029,9.452,10.447,0,19.029-4.229,19.029-9.452" transform="translate(-37.3 -47.641)" fill="none" stroke="#31353f" stroke-linecap="round" stroke-miterlimit="10" stroke-width="1"/>
              <path id="Path_441" data-name="Path 441" d="M37.3,100.5c0,5.224,8.457,9.452,19.029,9.452,10.447,0,19.029-4.229,19.029-9.452" transform="translate(-37.3 -46.398)" fill="none" stroke="#31353f" stroke-linecap="round" stroke-miterlimit="10" stroke-width="1"/>
              <path id="Path_442" data-name="Path 442" d="M37.3,107.2c0,3.482,8.457,8.333,19.029,8.333,10.447,0,19.029-4.851,19.029-8.333" transform="translate(-37.3 -44.765)" fill="none" stroke="#31353f" stroke-linecap="round" stroke-miterlimit="10" stroke-width="1"/>
            </g>
          </g>
          <g id="Group_1270" data-name="Group 1270" transform="translate(0 70.022)">
            <line id="Line_114" data-name="Line 114" y1="21.765" transform="translate(0 9.079)" fill="none" stroke="#31353f" stroke-linecap="round" stroke-miterlimit="10" stroke-width="1"/>
            <g id="Group_1269" data-name="Group 1269">
              <line id="Line_115" data-name="Line 115" y2="21.392" transform="translate(37.934 9.452)" fill="none" stroke="#31353f" stroke-linecap="round" stroke-miterlimit="10" stroke-width="1"/>
              <ellipse id="Ellipse_44" data-name="Ellipse 44" cx="19.029" cy="9.452" rx="19.029" ry="9.452" fill="none" stroke="#31353f" stroke-linecap="round" stroke-miterlimit="10" stroke-width="1"/>
              <path id="Path_443" data-name="Path 443" d="M1.7,95.4c0,5.224,8.457,9.452,19.029,9.452s19.029-4.229,19.029-9.452" transform="translate(-1.7 -79.232)" fill="none" stroke="#31353f" stroke-linecap="round" stroke-miterlimit="10" stroke-width="1"/>
              <path id="Path_444" data-name="Path 444" d="M1.7,100.5c0,5.224,8.457,9.452,19.029,9.452s19.029-4.229,19.029-9.452" transform="translate(-1.7 -77.988)" fill="none" stroke="#31353f" stroke-linecap="round" stroke-miterlimit="10" stroke-width="1"/>
              <path id="Path_445" data-name="Path 445" d="M1.7,107.2c0,3.482,8.457,8.333,19.029,8.333s19.029-4.851,19.029-8.333" transform="translate(-1.7 -76.356)" fill="none" stroke="#31353f" stroke-linecap="round" stroke-miterlimit="10" stroke-width="1"/>
            </g>
          </g>
          <path id="Path_446" data-name="Path 446" d="M78.5,1.8" transform="translate(32.664 43.72)" fill="none" stroke="#31353f" stroke-linecap="round" stroke-miterlimit="10" stroke-width="1"/>
        </g>
        <g id="Group_3752" data-name="Group 3752" transform="translate(0 0)">
          <line id="Line_116" data-name="Line 116" y1="30.72" x2="30.596" transform="translate(0 61.564)" fill="none" stroke="#31353f" stroke-linecap="round" stroke-miterlimit="10" stroke-width="1"/>
          <line id="Line_117" data-name="Line 117" y1="50.868" x2="50.62" transform="translate(24.875 28.481)" fill="none" stroke="#31353f" stroke-linecap="round" stroke-miterlimit="10" stroke-width="1"/>
          <line id="Line_118" data-name="Line 118" x1="60.943" y2="61.316" transform="translate(53.356 1.244)" fill="none" stroke="#31353f" stroke-linecap="round" stroke-miterlimit="10" stroke-width="1"/>
          <path id="Path_447" data-name="Path 447" d="M0,0,16.417.249a1.38,1.38,0,0,1,1.368,1.368v16.79" transform="translate(97.632)" fill="none" stroke="#31353f" stroke-linecap="round" stroke-miterlimit="10" stroke-width="1"/>
        </g>
      </g>
    </g>
    <rect id="Rectangle_1528" data-name="Rectangle 1528" width="180" height="180" transform="translate(-16560.84 -16239)" fill="#fff" opacity="0"/>
  </g>
</svg>
