<svg xmlns="http://www.w3.org/2000/svg" width="180" height="180" viewBox="0 0 180 180">
  <g id="Group_3962" data-name="Group 3962" transform="translate(-303 -480)">
    <g id="Group_3602" data-name="Group 3602" transform="translate(3273 -346.602)">
      <rect id="Rectangle_1526" data-name="Rectangle 1526" width="180" height="180" transform="translate(-2970 826.602)" fill="#fff" opacity="0"/>
      <g id="Group_3777" data-name="Group 3777" transform="translate(-2954.396 862.091)">
        <path id="Path_856" data-name="Path 856" d="M103.413,73.475c0-3.384-8.531-6.8-19.012-6.8s-18.2,5.315-18.2,8.7c0,.077-.01-.077,0,0v33.7c0,2.258,8.511,6.922,19.056,6.922,10.42,0,19.084-5.447,19.084-7.7Z" transform="translate(30.59 -5.071)" fill="#ffc32c"/>
        <g id="Group_3776" data-name="Group 3776" transform="translate(0 0)">
          <path id="Path_843" data-name="Path 843" d="M78.5,1.8" transform="translate(41.325 61.899)" fill="none" stroke="#31353f" stroke-linecap="round" stroke-miterlimit="10" stroke-width="1"/>
          <g id="Group_3753" data-name="Group 3753" transform="translate(0 0)">
            <line id="Line_221" data-name="Line 221" y1="30.639" x2="30.515" transform="matrix(0.848, 0.53, -0.53, 0.848, 16.236, 20.959)" fill="none" stroke="#31353f" stroke-linecap="round" stroke-miterlimit="10" stroke-width="1"/>
            <line id="Line_220" data-name="Line 220" y1="50.734" x2="50.486" transform="matrix(0.848, 0.53, -0.53, 0.848, 56.1, 6.034)" fill="none" stroke="#31353f" stroke-linecap="round" stroke-miterlimit="10" stroke-width="1"/>
            <line id="Line_222" data-name="Line 222" x1="60.782" y2="61.154" transform="matrix(0.848, 0.53, -0.53, 0.848, 89.345, 0)" fill="none" stroke="#31353f" stroke-linecap="round" stroke-miterlimit="10" stroke-width="1"/>
            <path id="Path_851" data-name="Path 851" d="M0,0,16.374.248a1.377,1.377,0,0,1,1.365,1.364V18.359" transform="matrix(0.848, 0.53, -0.53, 0.848, 127.452, 22.349)" fill="none" stroke="#31353f" stroke-linecap="round" stroke-miterlimit="10" stroke-width="1"/>
          </g>
          <g id="Group_3754" data-name="Group 3754" transform="translate(8.954 60.99)">
            <line id="Line_211" data-name="Line 211" y1="13.645" transform="translate(0 27.975)" fill="none" stroke="#31353f" stroke-linecap="round" stroke-miterlimit="10" stroke-width="1"/>
            <line id="Line_212" data-name="Line 212" y2="13.273" transform="translate(37.834 28.347)" fill="none" stroke="#31353f" stroke-linecap="round" stroke-miterlimit="10" stroke-width="1"/>
            <path id="Path_830" data-name="Path 830" d="M1.7,100.5c0,5.21,8.435,9.427,18.979,9.427s18.979-4.217,18.979-9.427" transform="translate(-1.7 -67.191)" fill="none" stroke="#31353f" stroke-linecap="round" stroke-miterlimit="10" stroke-width="1"/>
            <path id="Path_841" data-name="Path 841" d="M1.7,107.2c0,3.473,8.435,8.311,18.979,8.311s18.979-4.838,18.979-8.311" transform="translate(-1.7 -65.58)" fill="none" stroke="#31353f" stroke-linecap="round" stroke-miterlimit="10" stroke-width="1"/>
            <ellipse id="Ellipse_159" data-name="Ellipse 159" cx="18.979" cy="9.427" rx="18.979" ry="9.427" transform="translate(0 17.555)" fill="none" stroke="#31353f" stroke-linecap="round" stroke-miterlimit="10" stroke-width="1"/>
            <line id="Line_216" data-name="Line 216" y1="24.065" transform="translate(44.16 17.555)" fill="none" stroke="#31353f" stroke-linecap="round" stroke-miterlimit="10" stroke-width="1"/>
            <line id="Line_217" data-name="Line 217" y2="23.409" transform="translate(81.994 18.212)" fill="none" stroke="#31353f" stroke-linecap="round" stroke-miterlimit="10" stroke-width="1"/>
            <path id="Path_844" data-name="Path 844" d="M1.7,100.5c0,5.21,8.435,9.427,18.979,9.427s18.979-4.217,18.979-9.427" transform="translate(42.46 -67.191)" fill="none" stroke="#31353f" stroke-linecap="round" stroke-miterlimit="10" stroke-width="1"/>
            <path id="Path_850" data-name="Path 850" d="M1.7,100.5c0,5.21,8.435,9.427,18.979,9.427s18.979-4.217,18.979-9.427" transform="translate(42.46 -74.944)" fill="none" stroke="#31353f" stroke-linecap="round" stroke-miterlimit="10" stroke-width="1"/>
            <path id="Path_845" data-name="Path 845" d="M1.7,107.2c0,3.473,8.435,8.311,18.979,8.311s18.979-4.838,18.979-8.311" transform="translate(42.46 -65.58)" fill="none" stroke="#31353f" stroke-linecap="round" stroke-miterlimit="10" stroke-width="1"/>
            <ellipse id="Ellipse_161" data-name="Ellipse 161" cx="18.979" cy="9.427" rx="18.979" ry="9.427" transform="translate(44.16 8.128)" fill="none" stroke="#31353f" stroke-linecap="round" stroke-miterlimit="10" stroke-width="1"/>
            <line id="Line_218" data-name="Line 218" y1="32.193" transform="translate(88.32 9.427)" fill="none" stroke="#31353f" stroke-linecap="round" stroke-miterlimit="10" stroke-width="1"/>
            <line id="Line_219" data-name="Line 219" y2="31.821" transform="translate(126.154 9.8)" fill="none" stroke="#31353f" stroke-linecap="round" stroke-miterlimit="10" stroke-width="1"/>
            <path id="Path_846" data-name="Path 846" d="M1.7,100.5c0,5.21,8.435,9.427,18.979,9.427s18.979-4.217,18.979-9.427" transform="translate(86.62 -67.191)" fill="none" stroke="#31353f" stroke-linecap="round" stroke-miterlimit="10" stroke-width="1"/>
            <path id="Path_848" data-name="Path 848" d="M1.7,100.5c0,5.21,8.435,9.427,18.979,9.427s18.979-4.217,18.979-9.427" transform="translate(86.62 -74.993)" fill="none" stroke="#31353f" stroke-linecap="round" stroke-miterlimit="10" stroke-width="1"/>
            <path id="Path_849" data-name="Path 849" d="M1.7,100.5c0,5.21,8.435,9.427,18.979,9.427s18.979-4.217,18.979-9.427" transform="translate(86.62 -82.945)" fill="none" stroke="#31353f" stroke-linecap="round" stroke-miterlimit="10" stroke-width="1"/>
            <path id="Path_847" data-name="Path 847" d="M1.7,107.2c0,3.473,8.435,8.311,18.979,8.311s18.979-4.838,18.979-8.311" transform="translate(86.62 -65.58)" fill="none" stroke="#31353f" stroke-linecap="round" stroke-miterlimit="10" stroke-width="1"/>
            <ellipse id="Ellipse_162" data-name="Ellipse 162" cx="18.979" cy="9.427" rx="18.979" ry="9.427" transform="translate(88.32 0)" fill="none" stroke="#31353f" stroke-linecap="round" stroke-miterlimit="10" stroke-width="1"/>
          </g>
        </g>
      </g>
    </g>
  </g>
</svg>
