<svg xmlns="http://www.w3.org/2000/svg" width="200" height="200" viewBox="0 0 200 200">
  <g id="Group_4079" data-name="Group 4079" transform="translate(-584 -258)">
    <rect id="Rectangle_1569" data-name="Rectangle 1569" width="200" height="200" transform="translate(584 258)" fill="#fff" opacity="0"/>
    <g id="Group_4078" data-name="Group 4078">
      <path id="Path_896" data-name="Path 896" d="M-16764.445-17533.848h164" transform="translate(17366.945 17924.904)" fill="none" stroke="#31353f" stroke-linecap="round" stroke-width="1"/>
      <path id="Path_897" data-name="Path 897" d="M-9.294,0V-7.872h2.46a5.087,5.087,0,0,1,1.11.114,2.358,2.358,0,0,1,.876.378,1.8,1.8,0,0,1,.57.684,2.349,2.349,0,0,1,.2,1.032,2.17,2.17,0,0,1-.48,1.476,2.451,2.451,0,0,1-1.3.756l2,3.432H-4.974l-1.9-3.324H-8.3V0Zm1-4.14h1.32a2.287,2.287,0,0,0,1.416-.378A1.354,1.354,0,0,0-5.07-5.664a1.191,1.191,0,0,0-.492-1.092,2.655,2.655,0,0,0-1.416-.312H-8.3ZM-2.562,0V-5.832h.984V0Zm.5-7.032a.7.7,0,0,1-.486-.18.589.589,0,0,1-.2-.456.585.585,0,0,1,.2-.462A.71.71,0,0,1-2.058-8.3a.71.71,0,0,1,.486.174.585.585,0,0,1,.2.462.589.589,0,0,1-.2.456A.7.7,0,0,1-2.058-7.032ZM1.914.144A3.14,3.14,0,0,1,.726-.084,3.706,3.706,0,0,1-.258-.66l.492-.66a3.948,3.948,0,0,0,.786.5,2.134,2.134,0,0,0,.93.192,1.241,1.241,0,0,0,.864-.264A.845.845,0,0,0,3.1-1.536a.663.663,0,0,0-.12-.4,1.193,1.193,0,0,0-.306-.294,2.241,2.241,0,0,0-.426-.222L1.77-2.64q-.312-.108-.624-.246a2.492,2.492,0,0,1-.558-.336,1.7,1.7,0,0,1-.4-.462A1.229,1.229,0,0,1,.03-4.32a1.572,1.572,0,0,1,.138-.654,1.506,1.506,0,0,1,.4-.528,1.876,1.876,0,0,1,.63-.348,2.61,2.61,0,0,1,.84-.126,2.617,2.617,0,0,1,1.014.192,3.155,3.155,0,0,1,.8.468l-.468.624a3.135,3.135,0,0,0-.624-.372,1.724,1.724,0,0,0-.708-.144,1.123,1.123,0,0,0-.81.252.8.8,0,0,0-.258.588.59.59,0,0,0,.108.354,1.023,1.023,0,0,0,.288.264,2.348,2.348,0,0,0,.414.2l.486.186q.312.12.63.252a2.415,2.415,0,0,1,.57.33,1.622,1.622,0,0,1,.414.486,1.4,1.4,0,0,1,.162.7,1.642,1.642,0,0,1-.138.672A1.6,1.6,0,0,1,3.5-.372a1.951,1.951,0,0,1-.672.378A2.821,2.821,0,0,1,1.914.144ZM5.418,0V-8.544H6.39V-2.76h.036L8.91-5.832H10L8.046-3.492,10.266,0H9.186l-1.7-2.808L6.39-1.536V0Z" transform="translate(631 407)" fill="#31353f"/>
      <path id="Path_898" data-name="Path 898" d="M-15.846,0V-7.872h2.46a5.087,5.087,0,0,1,1.11.114,2.358,2.358,0,0,1,.876.378,1.8,1.8,0,0,1,.57.684,2.349,2.349,0,0,1,.2,1.032,2.17,2.17,0,0,1-.48,1.476,2.451,2.451,0,0,1-1.3.756L-10.4,0h-1.128l-1.9-3.324H-14.85V0Zm1-4.14h1.32a2.287,2.287,0,0,0,1.416-.378,1.354,1.354,0,0,0,.492-1.146,1.191,1.191,0,0,0-.492-1.092,2.655,2.655,0,0,0-1.416-.312h-1.32ZM-6.87.144a2.855,2.855,0,0,1-1.1-.21,2.6,2.6,0,0,1-.888-.6A2.778,2.778,0,0,1-9.45-1.62,3.571,3.571,0,0,1-9.666-2.9a3.532,3.532,0,0,1,.222-1.29,3.019,3.019,0,0,1,.588-.966,2.551,2.551,0,0,1,.834-.606,2.349,2.349,0,0,1,.972-.21,2.442,2.442,0,0,1,.99.192,1.931,1.931,0,0,1,.732.552,2.533,2.533,0,0,1,.45.864A3.807,3.807,0,0,1-4.722-3.24q0,.156-.006.306a1.478,1.478,0,0,1-.03.258H-8.694a2.278,2.278,0,0,0,.582,1.482A1.8,1.8,0,0,0-6.75-.648a2.293,2.293,0,0,0,.774-.126A3.425,3.425,0,0,0-5.3-1.1l.348.648a4.968,4.968,0,0,1-.852.42A2.96,2.96,0,0,1-6.87.144ZM-8.706-3.384h3.12a2.089,2.089,0,0,0-.378-1.35A1.3,1.3,0,0,0-7.026-5.2a1.5,1.5,0,0,0-.594.12,1.564,1.564,0,0,0-.51.354,1.94,1.94,0,0,0-.378.57A2.573,2.573,0,0,0-8.706-3.384ZM-1.566.144A1.9,1.9,0,0,1-2.352,0a1.352,1.352,0,0,1-.516-.4,1.543,1.543,0,0,1-.282-.612A3.487,3.487,0,0,1-3.234-1.8V-5.028H-4.1v-.744l.912-.06.12-1.632h.828v1.632H-.666v.8H-2.238v3.24a1.486,1.486,0,0,0,.2.834.784.784,0,0,0,.7.294A1.308,1.308,0,0,0-1-.708,2.559,2.559,0,0,0-.678-.816l.192.744a5.1,5.1,0,0,1-.522.15A2.442,2.442,0,0,1-1.566.144Zm3.924,0A1.582,1.582,0,0,1,1-.432a2.847,2.847,0,0,1-.426-1.7v-3.7h1v3.564a2.123,2.123,0,0,0,.258,1.194.949.949,0,0,0,.834.366,1.407,1.407,0,0,0,.8-.234,3.773,3.773,0,0,0,.768-.75v-4.14h.984V0H4.4L4.314-.912H4.278a3.89,3.89,0,0,1-.858.768A1.927,1.927,0,0,1,2.358.144ZM7.182,0V-5.832H8l.084,1.056h.036a2.7,2.7,0,0,1,.726-.876,1.5,1.5,0,0,1,.93-.324,1.55,1.55,0,0,1,.624.12l-.192.864a2.219,2.219,0,0,0-.264-.072,1.567,1.567,0,0,0-.3-.024,1.307,1.307,0,0,0-.774.3,2.387,2.387,0,0,0-.7,1.044V0Zm4.164,0V-5.832h.816l.084.84h.036a4.751,4.751,0,0,1,.882-.7,2.02,2.02,0,0,1,1.074-.282,1.568,1.568,0,0,1,1.35.576,2.847,2.847,0,0,1,.426,1.7V0H15.03V-3.564a2.084,2.084,0,0,0-.264-1.194.965.965,0,0,0-.84-.366,1.434,1.434,0,0,0-.8.228,5.216,5.216,0,0,0-.792.672V0Z" transform="translate(749 407)" fill="#31353f"/>
      <g id="Group_4074" data-name="Group 4074">
        <g id="Polygon_16" data-name="Polygon 16" transform="translate(675 385.598)" fill="none">
          <path d="M6.612,6.32a2,2,0,0,1,3.828,0l5.83,19.249a2,2,0,0,1-1.914,2.58H2.7a2,2,0,0,1-1.914-2.58Z" stroke="none"/>
          <path d="M 8.525669097900391 5.899448394775391 C 8.351609230041504 5.899448394775391 7.768178939819336 5.950658798217773 7.568598747253418 6.609579086303711 L 1.738429069519043 25.85854911804199 C 1.645719528198242 26.16462898254395 1.701848983764648 26.48748016357422 1.892409324645996 26.74430847167969 C 2.082979202270508 27.00113868713379 2.375689506530762 27.14843940734863 2.695488929748535 27.14843940734863 L 14.35584926605225 27.14843940734863 C 14.67564964294434 27.14843940734863 14.96835899353027 27.00113868713379 15.15892887115479 26.74430847167969 C 15.34948921203613 26.48748016357422 15.40561866760254 26.16462898254395 15.31291961669922 25.85855865478516 L 9.482738494873047 6.609579086303711 C 9.283159255981445 5.950658798217773 8.699728965759277 5.899448394775391 8.525669097900391 5.899448394775391 M 8.525669097900391 4.899454116821289 C 9.339344024658203 4.899454116821289 10.15301895141602 5.372869491577148 10.43979930877686 6.319698333740234 L 16.26997947692871 25.56867980957031 C 16.65896987915039 26.85299873352051 15.69777870178223 28.14843940734863 14.35584926605225 28.14843940734863 L 2.695488929748535 28.14843940734863 C 1.353559494018555 28.14843940734863 0.3923683166503906 26.85299873352051 0.7813587188720703 25.56867980957031 L 6.611538887023926 6.319698333740234 C 6.898319244384766 5.372869491577148 7.711994171142578 4.899454116821289 8.525669097900391 4.899454116821289 Z" stroke="none" fill="#31353f"/>
        </g>
        <g id="Group_4072" data-name="Group 4072" transform="translate(2.675 0.205)">
          <line id="Line_112" data-name="Line 112" y1="47.964" transform="translate(728 335.219)" fill="none"/>
          <line id="Line_113" data-name="Line 113" y2="41.355" transform="translate(762.914 341.828)" fill="none"/>
          <ellipse id="Ellipse_43" data-name="Ellipse 43" cx="17.514" cy="8.7" rx="17.514" ry="8.7" transform="translate(728 332.326)" fill="#ffc32c"/>
          <path id="Path_435" data-name="Path 435" d="M37.3,69.9c0,4.808,7.784,8.7,17.514,8.7,9.616,0,17.514-3.892,17.514-8.7" transform="translate(690.7 275.463)" fill="#ffc32c"/>
          <path id="Path_436" data-name="Path 436" d="M37.3,75c0,4.808,7.784,8.7,17.514,8.7,9.616,0,17.514-3.892,17.514-8.7" transform="translate(690.7 275.518)" fill="#ffc32c"/>
          <path id="Path_437" data-name="Path 437" d="M37.3,80.1c0,4.808,7.784,8.7,17.514,8.7,9.616,0,17.514-3.892,17.514-8.7" transform="translate(690.7 275.572)" fill="#ffc32c"/>
          <path id="Path_438" data-name="Path 438" d="M37.3,85.2c0,4.808,7.784,8.7,17.514,8.7,9.616,0,17.514-3.892,17.514-8.7" transform="translate(690.7 275.627)" fill="#ffc32c"/>
          <path id="Path_439" data-name="Path 439" d="M37.3,90.3c0,4.808,7.784,8.7,17.514,8.7,9.616,0,17.514-3.892,17.514-8.7" transform="translate(690.7 275.682)" fill="#ffc32c"/>
          <path id="Path_440" data-name="Path 440" d="M37.3,95.4c0,4.808,7.784,8.7,17.514,8.7,9.616,0,17.514-3.892,17.514-8.7" transform="translate(690.7 275.736)" fill="#ffc32c"/>
          <path id="Path_441" data-name="Path 441" d="M37.3,100.5c0,4.808,7.784,8.7,17.514,8.7,9.616,0,17.514-3.892,17.514-8.7" transform="translate(690.7 275.014)" fill="#ffc32c"/>
          <path id="Path_442" data-name="Path 442" d="M37.3,107.2c0,3.205,7.784,7.67,17.514,7.67,9.616,0,17.514-4.464,17.514-7.67" transform="translate(690.7 275.982)" fill="#ffc32c"/>
          <path id="Path_889" data-name="Path 889" d="M17.483,2.486.8,7.954l-.7.415V50.763l27.434,4.4,7.16-4.4.6-43.239Z" transform="translate(728.032 333.164)" fill="#ffc32c"/>
          <line id="Line_112-2" data-name="Line 112" y1="42.699" transform="translate(728 340.484)" fill="none" stroke="#31353f" stroke-linecap="round" stroke-miterlimit="10" stroke-width="1"/>
          <line id="Line_113-2" data-name="Line 113" y2="42.699" transform="translate(763.029 340.484)" fill="none" stroke="#31353f" stroke-linecap="round" stroke-miterlimit="10" stroke-width="1"/>
          <ellipse id="Ellipse_43-2" data-name="Ellipse 43" cx="17.514" cy="8.7" rx="17.514" ry="8.7" transform="translate(728 331.783)" fill="none" stroke="#31353f" stroke-linecap="round" stroke-miterlimit="10" stroke-width="1"/>
          <path id="Path_435-2" data-name="Path 435" d="M37.3,69.9c0,4.808,7.784,8.7,17.514,8.7,9.616,0,17.514-3.892,17.514-8.7" transform="translate(690.7 270.584)" fill="none" stroke="#31353f" stroke-linecap="round" stroke-miterlimit="10" stroke-width="1"/>
          <path id="Path_436-2" data-name="Path 436" d="M37.3,75c0,4.808,7.784,8.7,17.514,8.7,9.616,0,17.514-3.892,17.514-8.7" transform="translate(690.7 271.322)" fill="none" stroke="#31353f" stroke-linecap="round" stroke-miterlimit="10" stroke-width="1"/>
          <path id="Path_437-2" data-name="Path 437" d="M37.3,80.1c0,4.808,7.784,8.7,17.514,8.7,9.616,0,17.514-3.892,17.514-8.7" transform="translate(690.7 272.061)" fill="none" stroke="#31353f" stroke-linecap="round" stroke-miterlimit="10" stroke-width="1"/>
          <path id="Path_438-2" data-name="Path 438" d="M37.3,85.2c0,4.808,7.784,8.7,17.514,8.7,9.616,0,17.514-3.892,17.514-8.7" transform="translate(690.7 272.799)" fill="none" stroke="#31353f" stroke-linecap="round" stroke-miterlimit="10" stroke-width="1"/>
          <path id="Path_439-2" data-name="Path 439" d="M37.3,90.3c0,4.808,7.784,8.7,17.514,8.7,9.616,0,17.514-3.892,17.514-8.7" transform="translate(690.7 273.537)" fill="none" stroke="#31353f" stroke-linecap="round" stroke-miterlimit="10" stroke-width="1"/>
          <path id="Path_440-2" data-name="Path 440" d="M37.3,95.4c0,4.808,7.784,8.7,17.514,8.7,9.616,0,17.514-3.892,17.514-8.7" transform="translate(690.7 274.275)" fill="none" stroke="#31353f" stroke-linecap="round" stroke-miterlimit="10" stroke-width="1"/>
          <path id="Path_441-2" data-name="Path 441" d="M37.3,100.5c0,4.808,7.784,8.7,17.514,8.7,9.616,0,17.514-3.892,17.514-8.7" transform="translate(690.7 275.014)" fill="none" stroke="#31353f" stroke-linecap="round" stroke-miterlimit="10" stroke-width="1"/>
          <path id="Path_442-2" data-name="Path 442" d="M37.3,107.2c0,3.205,7.784,7.67,17.514,7.67,9.616,0,17.514-4.464,17.514-7.67" transform="translate(690.7 275.982)" fill="none" stroke="#31353f" stroke-linecap="round" stroke-miterlimit="10" stroke-width="1"/>
          <text id="_" data-name="₹" transform="translate(746 345)" fill="#31353f" font-size="15" font-family="SourceSansPro-Regular, Source Sans Pro"><tspan x="-3.727" y="0">₹</tspan></text>
        </g>
        <g id="Group_4073" data-name="Group 4073" transform="translate(0.168)">
          <g id="Group_4072-2" data-name="Group 4072" transform="translate(0 -15.172)">
            <g id="Polygon_15" data-name="Polygon 15" transform="translate(599.24 356.703)" fill="#ffc32c">
              <path d="M 57.62715530395508 49.82016372680664 L 3.55648398399353 49.82016372680664 C 3.007094144821167 49.82016372680664 2.518324136734009 49.53427505493164 2.24903392791748 49.05540466308594 C 1.979744076728821 48.57654571533203 1.98936402797699 48.01038360595703 2.274754047393799 47.54094696044922 L 29.31008338928223 3.070805311203003 C 29.58447456359863 2.619475364685059 30.06362342834473 2.350025415420532 30.5918140411377 2.350025415420532 C 31.12000465393066 2.350025415420532 31.59915351867676 2.619475364685059 31.87354469299316 3.070805311203003 L 58.90888214111328 47.54094696044922 C 59.19427490234375 48.01039505004883 59.20388412475586 48.57654571533203 58.93459320068359 49.05541610717773 C 58.66530227661133 49.53427505493164 58.17654418945312 49.82016372680664 57.62715530395508 49.82016372680664 Z" stroke="none"/>
              <path d="M 30.5918140411377 2.850013732910156 C 30.42273330688477 2.850013732910156 30.0009937286377 2.896835327148438 29.73732376098633 3.330543518066406 L 2.701995849609375 47.80068588256836 C 2.427753448486328 48.25178527832031 2.598644256591797 48.65702438354492 2.684844970703125 48.8103141784668 C 2.771053314208984 48.96361541748047 3.028553009033203 49.32015609741211 3.556484222412109 49.32015609741211 L 57.62715530395508 49.32015609741211 C 58.15507507324219 49.32015609741211 58.41257476806641 48.96361541748047 58.49878311157227 48.8103141784668 C 58.58498382568359 48.65702438354492 58.75588226318359 48.25178527832031 58.48164367675781 47.80068588256836 L 31.44630432128906 3.330543518066406 C 31.1826343536377 2.896835327148438 30.76089477539062 2.850013732910156 30.5918140411377 2.850013732910156 M 30.5918140411377 1.850013732910156 C 31.25154495239258 1.850013732910156 31.91127395629883 2.170364379882812 32.30078125 2.811065673828125 L 59.33612442016602 47.28120422363281 C 60.14639282226562 48.614013671875 59.18694305419922 50.32015609741211 57.62715530395508 50.32015609741211 L 3.556484222412109 50.32015609741211 C 1.996685028076172 50.32015609741211 1.037235260009766 48.614013671875 1.847515106201172 47.28120422363281 L 28.88284301757812 2.811065673828125 C 29.27235412597656 2.170364379882812 29.93208312988281 1.850013732910156 30.5918140411377 1.850013732910156 Z" stroke="none" fill="#31353f"/>
            </g>
          </g>
          <path id="Path_896-2" data-name="Path 896" d="M-9802.369-17761.74h5.754l-2.207,7.484,5.057-1.67-7.551,15.9,1.241-10.559-4.273,2Z" transform="translate(10429.332 18125.627)" fill="#fff" stroke="#31353f" stroke-linejoin="round" stroke-width="1"/>
        </g>
      </g>
    </g>
  </g>
</svg>
