<svg xmlns="http://www.w3.org/2000/svg" width="578" height="40" viewBox="0 0 578 40">
  <path id="Path_888" data-name="Path 888" d="M369.619,9.863c-.344-.438-.574-.986-.919-1.425-.115-.11-.23-.329-.344-.438v.11a19.18,19.18,0,0,0-4.018-3.945c-.115-.11-.23-.219-.344-.219a12.029,12.029,0,0,1-1.263-.877l-.689-.329a6.674,6.674,0,0,1-.8-.438,6.3,6.3,0,0,0-1.263-.548c-.23-.11-.344-.11-.574-.219-.459-.11-.8-.329-1.263-.438-.115,0-.23-.11-.459-.11-.574-.11-1.033-.329-1.607-.438-.115,0-.344-.11-.459-.11A9.262,9.262,0,0,0,353.89.219h-.344A6.294,6.294,0,0,0,351.593,0H-167.393a11.662,11.662,0,0,0-1.952.11h-.344c-.574.11-1.148.11-1.722.219-.115,0-.344.11-.459.11a8.769,8.769,0,0,0-1.607.438c-.115,0-.344.11-.459.11-.459.11-.8.329-1.263.438-.23.11-.459.11-.574.219-.459.219-.919.329-1.263.548a6.679,6.679,0,0,0-.8.438l-.689.329a5.1,5.1,0,0,0-1.263.877c-.115.11-.23.219-.344.219A22.965,22.965,0,0,0-184.271,8h0c-.115.219-.23.329-.344.548h0c-.115.219-.344.438-.459.658a11.5,11.5,0,0,1-.8,1.205A27.488,27.488,0,0,1-196.9,20.055c4.592,1.973,8.5,5.918,11.94,11.068h0c.115.11.115.219.23.219h0a3.337,3.337,0,0,0,.574.767V32h0a17.279,17.279,0,0,0,4.133,3.945c.115.11.23.219.344.219a12.017,12.017,0,0,1,1.263.877l.689.329a6.677,6.677,0,0,1,.8.438,6.3,6.3,0,0,0,1.263.548c.23.11.459.11.574.219.459.11.8.329,1.263.438.115,0,.344.11.459.11.574.11,1.033.329,1.607.438.115,0,.344.11.459.11a9.261,9.261,0,0,0,1.722.219h.344a11.663,11.663,0,0,0,1.952.11H351.708a11.663,11.663,0,0,0,1.952-.11H354c.574-.11,1.148-.11,1.722-.219.115,0,.344-.11.459-.11a6.823,6.823,0,0,0,1.607-.438c.115,0,.23-.11.459-.11.459-.11.8-.329,1.263-.438.23-.11.459-.11.574-.219.459-.219.918-.329,1.263-.548a6.674,6.674,0,0,0,.8-.438l.689-.329a5.1,5.1,0,0,0,1.263-.877c.115-.11.23-.219.344-.219A19.181,19.181,0,0,0,368.471,32v.11c.115-.11.115-.219.23-.329l.689-.986c.115-.219.23-.329.344-.548s.344-.548.459-.767h0A25.909,25.909,0,0,1,381.1,20.055C376.737,18.192,372.948,14.575,369.619,9.863Z" transform="translate(196.9)" fill="#ffc32c"/>
</svg>
