<?xml version="1.0" encoding="utf-8"?>
<!-- Generator: Adobe Illustrator 23.0.1, SVG Export Plug-In . SVG Version: 6.00 Build 0)  -->
<svg version="1.1" id="Layer_1" xmlns="http://www.w3.org/2000/svg" xmlns:xlink="http://www.w3.org/1999/xlink" x="0px" y="0px"
	 viewBox="0 0 16.4 4" style="enable-background:new 0 0 16.4 4;" xml:space="preserve">
<style type="text/css">
	.st0{fill-rule:evenodd;clip-rule:evenodd;fill:#FFC32C;}
</style>
<path id="_3-vertical-dots" class="st0" d="M0,2c0-1.1,0.9-2,2-2s2,0.9,2,2S3.1,4,2,4S0,3.1,0,2z M12.4,2c0-1.1,0.9-2,2-2s2,0.9,2,2
	s-0.9,2-2,2S12.4,3.1,12.4,2z M6.2,2c0-1.1,0.9-2,2-2s2,0.9,2,2s-0.9,2-2,2S6.2,3.1,6.2,2z"/>
</svg>
