<svg xmlns="http://www.w3.org/2000/svg" width="40" height="50" viewBox="0 0 40 50"><defs><style>.a{fill:#ffc32c;}.b,.c{fill:#fff;}.b{opacity:0;}.d{fill:none;stroke:#ffb500;stroke-linecap:round;stroke-miterlimit:10;}.e,.f{stroke:none;}.f{fill:#707070;}</style></defs><g transform="translate(-1404 -281)"><path class="a" d="M0,0H36a4,4,0,0,1,4,4V50a0,0,0,0,1,0,0H0a0,0,0,0,1,0,0V0A0,0,0,0,1,0,0Z" transform="translate(1404 281)"/><g transform="translate(1411.5 293.682)"><g class="b"><path class="e" d="M 23.5 23.5 L 0.5 23.5 L 0.5 0.5 L 23.5 0.5 L 23.5 23.5 Z"/><path class="f" d="M 1 1 L 1 23 L 23 23 L 23 1 L 1 1 M 0 0 L 24 0 L 24 24 L 0 24 L 0 0 Z"/></g><g transform="translate(0.11 0.222)"><path class="c" d="M1265.009,321.347h-18.365a2.717,2.717,0,0,0-2.717,2.717v13.263a2.717,2.717,0,0,0,2.717,2.717H1258.7l7.235,5.082-2.033-5.082h1.1a2.717,2.717,0,0,0,2.717-2.717V324.064A2.717,2.717,0,0,0,1265.009,321.347Z" transform="translate(-1243.927 -321.347)"/><g transform="translate(3.555 4.459)"><line class="d" x2="16.82" transform="translate(0)"/><line class="d" x2="16.82" transform="translate(0 3.377)"/><line class="d" x2="16.82" transform="translate(0 6.754)"/><line class="d" x2="16.82" transform="translate(0 10.132)"/></g></g></g></g></svg>