<svg xmlns="http://www.w3.org/2000/svg" width="74.194" height="154.642" viewBox="0 0 74.194 154.642"><defs><style>.a{fill:#ffc32c;mix-blend-mode:multiply;isolation:isolate;}.b{fill:none;}.b,.c{stroke:#31353f;stroke-linecap:round;stroke-miterlimit:10;stroke-width:1.2px;}.c{fill:#fff;}</style></defs><g transform="translate(0.653 0.698)"><g transform="translate(0 0)"><path class="a" d="M-1266.524,1842.388s3.057,7.8,5.941,9c0,0-7.662,26.534-6.646,37.253l10.37,12.817-3.135,3.932-8.609-5.811v11.55l-44.872,1.05s2.34-33.822,11.309-48.471C-1302.167,1863.71-1290.508,1837.816-1266.524,1842.388Z" transform="translate(1313.941 -1819.634)"/><g transform="translate(45.414)"><path class="b" d="M-1278.149,1862.6a14.8,14.8,0,0,0,5.361-1.231c9.916-4.094,14.4-27.552,1.33-30.723-9.556-2.32-22.278,4.158-17.328,20.965C-1288.283,1853.324-1284.519,1862.724-1278.149,1862.6Z" transform="translate(1289.892 -1830.193)"/></g><g transform="translate(0 22.309)"><path class="b" d="M-1267.235,1842.415s-39.646-11.085-46.485,69.375h45.338v-12.255" transform="translate(1313.72 -1841.898)"/><path class="b" d="M-1281.976,1846.854s-7.465,20.693-7.231,37.843" transform="translate(1335.922 -1837.407)"/><path class="b" d="M-1287.144,1844.623s7.277.85,4.148,11.622-5.166,18.143-5.166,18.143a6.453,6.453,0,0,0,1.723,7.229c3.52,3.33,17.214,16.724,17.214,16.724a1.793,1.793,0,0,1-.625,2.127c-1.174.921-3.13,2.409-3.13,2.409s-1.1.709-2.626-.779-22.259-19.347-22.259-19.347-1.487-.993-1.252-3.687.313-20.126.313-20.126" transform="translate(1326.926 -1839.429)"/><path class="b" d="M-1281.721,1873.575l6.635,3.242s1.565.682,0,2.384a18.854,18.854,0,0,1-4.616,3.189s-3.052,1.037-3.679-.652-2.033-5.089-2.033-5.089" transform="translate(1339.362 -1813.201)"/><path class="b" d="M-1283.715,1878.365a3.875,3.875,0,0,0-1.33,2.579v4.973" transform="translate(1339.696 -1808.861)"/><path class="b" d="M-1280,1876.527a6.121,6.121,0,0,1,3.21,5.514v59.52" transform="translate(1344.271 -1810.526)"/><path class="b" d="M-1283.9,1878.569l-10.016,51.149h-7.9l-5.478-51.007" transform="translate(1319.536 -1808.676)"/><path class="b" d="M-1304.466,1905.827v8.009h18.388s1.33-4.511-1.643-4.736-7.982.2-8.763-2.918l-.158-.85" transform="translate(1322.103 -1784.432)"/></g><path class="b" d="M-1284.479,1837.5s2.942-2.527,10.8-1.489" transform="translate(1340.209 -1825.143)"/><ellipse class="c" cx="2.38" cy="4.99" rx="2.38" ry="4.99" transform="translate(68.182 8.372)"/></g></g></svg>