<svg xmlns="http://www.w3.org/2000/svg" width="499" height="107" viewBox="0 0 499 107"><defs><style>.a,.e,.f,.j{fill:none;}.a,.f,.g{stroke:#ffc32c;}.a{stroke-width:4px;}.b,.d{fill:#b2b2b2;}.b{font-size:13px;}.b,.d,.h{font-family:SourceSansPro-Regular, Source Sans Pro;}.c{fill:#ffc32c;}.d{font-size:14px;}.e{stroke:#b2b2b2;}.f{stroke-width:2px;}.g{fill:#fff;}.h{fill:#31353f;font-size:20px;}.i{stroke:none;}</style></defs><g transform="translate(-790 -256)"><g transform="translate(790 253.638)"><g transform="translate(0 32.363)"><g transform="translate(3.585 36.306)"><g transform="translate(0)"><path class="a" d="M-1740-2138.2h487.841" transform="translate(1740 2138.195)"/></g></g><text class="b" transform="translate(415 14)"><tspan x="0" y="0">Retirement Age</tspan></text><text class="b" transform="translate(82.625 13)"><tspan x="0" y="0">Present Age</tspan></text><circle class="c" cx="6" cy="6" r="6" transform="translate(485 30)"/><text class="d" transform="translate(0 73)"><tspan x="0" y="0">20</tspan></text><text class="d" transform="translate(61 73)"><tspan x="0" y="0">25</tspan></text><text class="d" transform="translate(119 73)"><tspan x="0" y="0">30</tspan></text><text class="d" transform="translate(181 73)"><tspan x="0" y="0">35</tspan></text><text class="d" transform="translate(240 73)"><tspan x="0" y="0">40</tspan></text><text class="d" transform="translate(300 73)"><tspan x="0" y="0">45</tspan></text><text class="d" transform="translate(362 73)"><tspan x="0" y="0">50</tspan></text><text class="d" transform="translate(423 73)"><tspan x="0" y="0">55</tspan></text><text class="d" transform="translate(483 73)"><tspan x="0" y="0">60</tspan></text><g transform="translate(4.866 43.473)"><path class="e" d="M-1742-1974.748v-17.74" transform="translate(1742 1992.488)"/><path class="e" d="M-1742-1981.6v-10.886" transform="translate(1753.786 1992.689)"/><path class="e" d="M-1742-1981.6v-10.886" transform="translate(1814.766 1992.689)"/><path class="e" d="M-1742-1981.6v-10.886" transform="translate(1875.746 1992.689)"/><path class="e" d="M-1742-1981.6v-10.886" transform="translate(1935.702 1992.689)"/><path class="e" d="M-1742-1981.6v-10.886" transform="translate(1995.657 1992.689)"/><path class="e" d="M-1742-1981.6v-10.886" transform="translate(2057.149 1992.689)"/><path class="e" d="M-1742-1981.6v-10.886" transform="translate(2117.617 1992.689)"/><path class="e" d="M-1742-1981.6v-10.886" transform="translate(2178.085 1992.689)"/><path class="e" d="M-1742-1981.6v-10.886" transform="translate(1766.085 1992.689)"/><path class="e" d="M-1742-1981.6v-10.886" transform="translate(1827.065 1992.689)"/><path class="e" d="M-1742-1981.6v-10.886" transform="translate(1888.045 1992.689)"/><path class="e" d="M-1742-1981.6v-10.886" transform="translate(1948 1992.689)"/><path class="e" d="M-1742-1981.6v-10.886" transform="translate(2007.956 1992.689)"/><path class="e" d="M-1742-1981.6v-10.886" transform="translate(2069.448 1992.689)"/><path class="e" d="M-1742-1981.6v-10.886" transform="translate(2129.916 1992.689)"/><path class="e" d="M-1742-1981.6v-10.886" transform="translate(2190.384 1992.689)"/><path class="e" d="M-1742-1981.6v-10.886" transform="translate(1778.383 1992.689)"/><path class="e" d="M-1742-1981.6v-10.886" transform="translate(1839.363 1992.689)"/><path class="e" d="M-1742-1981.6v-10.886" transform="translate(1900.344 1992.689)"/><path class="e" d="M-1742-1981.6v-10.886" transform="translate(1960.299 1992.689)"/><path class="e" d="M-1742-1981.6v-10.886" transform="translate(2020.254 1992.689)"/><path class="e" d="M-1742-1981.6v-10.886" transform="translate(2081.747 1992.689)"/><path class="e" d="M-1742-1981.6v-10.886" transform="translate(2142.215 1992.689)"/><path class="e" d="M-1742-1981.6v-10.886" transform="translate(2202.682 1992.689)"/><path class="e" d="M-1742-1981.6v-10.886" transform="translate(1790.682 1992.689)"/><path class="e" d="M-1742-1981.6v-10.886" transform="translate(1851.662 1992.689)"/><path class="e" d="M-1742-1981.6v-10.886" transform="translate(1912.642 1992.689)"/><path class="e" d="M-1742-1981.6v-10.886" transform="translate(1972.597 1992.689)"/><path class="e" d="M-1742-1981.6v-10.886" transform="translate(2032.552 1992.689)"/><path class="e" d="M-1742-1981.6v-10.886" transform="translate(2094.045 1992.689)"/><path class="e" d="M-1742-1981.6v-10.886" transform="translate(2154.513 1992.689)"/><path class="e" d="M-1742-1981.6v-10.886" transform="translate(2214.981 1992.689)"/><path class="e" d="M-1742-1974.749v-17.74" transform="translate(1802.98 1992.488)"/><path class="e" d="M-1742-1974.749v-17.74" transform="translate(1863.96 1992.488)"/><path class="e" d="M-1742-1974.749v-17.74" transform="translate(1924.941 1992.488)"/><path class="e" d="M-1742-1974.749v-17.74" transform="translate(1984.896 1992.488)"/><path class="e" d="M-1742-1974.749v-17.74" transform="translate(2044.851 1992.488)"/><path class="e" d="M-1742-1974.749v-17.74" transform="translate(2106.344 1992.488)"/><path class="e" d="M-1742-1974.749v-17.74" transform="translate(2166.811 1992.488)"/><path class="e" d="M-1742-1974.749v-17.74" transform="translate(2227.279 1992.488)"/></g><path class="f" d="M-1742-1992.488v19.531" transform="translate(1856.625 2028.795)"/></g></g><g transform="translate(-37)"><g class="g" transform="translate(929 309)"><circle class="i" cx="12" cy="12" r="12"/><circle class="j" cx="12" cy="12" r="11.5"/></g><circle class="c" cx="6" cy="6" r="6" transform="translate(935 315)"/></g><g transform="translate(895 256)"><text class="h" transform="translate(0 20)"><tspan x="0" y="0">31</tspan></text></g></g></svg>