<svg xmlns="http://www.w3.org/2000/svg" width="192" height="167.559" viewBox="0 0 192 167.559"><defs><style>.a{fill:#ff3100;}.b{fill:#f2f2f2;}.c,.d,.f{fill:#31353f;}.d{font-size:12px;}.d,.e,.f,.g{font-family:SourceSansPro-Semibold, Source Sans Pro;font-weight:600;}.e,.g{fill:#b2b2b2;}.e{font-size:14px;}.e,.f,.g{letter-spacing:-0.03em;}.f{font-size:15px;}.g{font-size:16px;}</style></defs><path class="a" d="M989.88,337.05h0l-33.615,33.614h0a48.462,48.462,0,0,1,0,68.536h0l33.614,33.614.013-.013A96,96,0,0,0,989.88,337.05Z" transform="translate(-825.998 -308.932)"/><path class="b" d="M883.371,439.2h0a48.462,48.462,0,0,1,0-68.536L849.757,337.05l-.016.016a96,96,0,0,0,.015,135.75h0Z" transform="translate(-821.639 -308.932)"/><path class="b" d="M986.462,336.109a96,96,0,0,0-135.75-.014l-.015.014,33.614,33.614h0a48.462,48.462,0,0,1,68.536,0h0l33.614-33.615Z" transform="translate(-822.58 -307.992)"/><path class="c" d="M856.4,421.434l53.857-13.247h0L856.4,394.94c-5.665,0-10.258,5.931-10.258,13.247h0C846.138,415.5,850.731,421.434,856.4,421.434Z" transform="translate(-757.036 -310.807)"/><text class="d" transform="translate(83.504 164.559)"><tspan x="0" y="0">Risk</tspan></text><text class="e" transform="translate(21.204 99.645)"><tspan x="0" y="0">₹</tspan></text><text class="f" transform="translate(158.95 100.645)"><tspan x="0" y="0">₹₹₹</tspan></text><text class="g" transform="translate(91.807 31.174)"><tspan x="0" y="0">₹₹</tspan></text></svg>