<svg xmlns="http://www.w3.org/2000/svg" width="94" height="35.365" viewBox="0 0 94 35.365">
  <g id="Group_1681" data-name="Group 1681" transform="translate(-2011 -430.635)">
    <text id="_100_Secure_Payment" data-name="100% Secure Payment" transform="translate(2058 463)" fill="#e6e7e8" font-size="10" font-family="SourceSansPro-Regular, Source Sans Pro"><tspan x="-46.47" y="0">100% Secure Payment</tspan></text>
    <g id="Group_1680" data-name="Group 1680" transform="translate(2991.288 450.635)">
      <g id="Group_1679" data-name="Group 1679" transform="translate(-943 -20)">
        <path id="Path_402" data-name="Path 402" d="M-111.917-87.912v-4.146c.029.026.054.047.077.07q1.185,1.177,2.368,2.355a.23.23,0,0,0,.177.075q3.658,0,7.317,0h.119v-7.255h-4.06a.724.724,0,0,0-.009.081q0,.845,0,1.689c0,.058,0,.1.081.1.315,0,.631,0,.946,0a.593.593,0,0,0,.066-.008v-.8h1.892c0,.094,0,.183,0,.273-.005.453-.007.907-.02,1.36a1.509,1.509,0,0,1-.063.369.906.906,0,0,1-.818.659,3,3,0,0,1-.442.033q-1.829,0-3.658,0h-.106v-4.068h-.124c-.708,0-1.416.006-2.123,0a2.518,2.518,0,0,1-.609-.082,1.267,1.267,0,0,1-.966-1.1,2.81,2.81,0,0,1-.04-.48q0-3.986,0-7.973v-.11h19.838v.112q0,3.47,0,6.94a.206.206,0,0,1-.065.161c-.2.2-.4.4-.6.6a.183.183,0,0,1-.115.051q-1.477,0-2.954,0l-.04-.005c.032-.034.056-.06.081-.085q.851-.842,1.7-1.682a.236.236,0,0,0,.077-.185q0-1.149,0-2.3a.228.228,0,0,0-.074-.177q-.757-.752-1.508-1.508a.228.228,0,0,0-.176-.076q-6.1,0-12.2,0a.231.231,0,0,0-.177.076c-.512.508-1.026,1.013-1.537,1.521a.207.207,0,0,0-.06.131q0,2.085,0,4.17c0,.022,0,.045,0,.075h1.605v-3.5h3.519a2.035,2.035,0,0,1,1.063.265,1.091,1.091,0,0,1,.587,1.022c-.01.424,0,.849,0,1.274v.11h-1.887c0-.206,0-.407,0-.609s.029-.174-.173-.175c-.277,0-.553,0-.83,0-.053,0-.094,0-.093.074,0,.505,0,1.01,0,1.515a.346.346,0,0,0,.01.052h.13c2.317,0,4.633-.013,6.95.006a3.6,3.6,0,0,1,2.426.9,2.7,2.7,0,0,1,.942,2.451,2.3,2.3,0,0,1-.558,1.327,2.364,2.364,0,0,1-.641.489.4.4,0,0,0-.077.074.4.4,0,0,0,.089.072,2.88,2.88,0,0,1,1.311.978,2.823,2.823,0,0,1,.47,1.221,3.133,3.133,0,0,1-2.531,3.524,5.071,5.071,0,0,1-.748.061q-6.815.005-13.629,0ZM-99.961-92.5v2.963c.04,0,.074.006.108.006h1.379a1.55,1.55,0,0,0,1.431-.966,1.439,1.439,0,0,0-1.348-2h-1.57Zm0-4.363c0,.038-.007.06-.007.082,0,.752,0,1.5,0,2.257,0,.077.03.09.1.09.373,0,.746,0,1.119,0a1.626,1.626,0,0,0,1.153-.48,1.022,1.022,0,0,0-.077-1.6,1.684,1.684,0,0,0-.994-.347c-.4-.014-.8,0-1.2,0Z" transform="translate(111.917 106.873)" fill="#e6e7e8"/>
        <path id="Path_403" data-name="Path 403" d="M739.125,462.423a.566.566,0,0,0,.087-.059c.443-.435.884-.872,1.329-1.306a.256.256,0,0,0,.084-.2q0-3.19,0-6.38c0-.141,0-.141.14-.141.547,0,1.094,0,1.641,0,.085,0,.109.023.109.108q0,3.957,0,7.915c0,.079-.021.105-.1.1q-1.6,0-3.195,0c-.022,0-.044,0-.067,0Z" transform="translate(-722.695 -443.499)" fill="#e6e7e8"/>
        <path id="Path_404" data-name="Path 404" d="M817.333,337.954a.943.943,0,1,1-.943-.942A.943.943,0,0,1,817.333,337.954Z" transform="translate(-797.544 -328.443)" fill="#e6e7e8"/>
      </g>
    </g>
  </g>
</svg>
