<svg xmlns="http://www.w3.org/2000/svg" width="24" height="24" viewBox="0 0 24 24">
  <g id="Group_3599" data-name="Group 3599" transform="translate(6447 -2823)">
    <rect id="Rectangle_1554" data-name="Rectangle 1554" width="24" height="24" transform="translate(-6447 2823)" fill="#fff" opacity="0"/>
    <path id="XMLID_14_" d="M217.9,400.7h2.5v-3.8c-.4,0-.8-.1-1.2-.1-.8,0-1.5-.1-2.3-.1a5.284,5.284,0,0,0-3.2,1,4.679,4.679,0,0,0-1.9,3.2,8.6,8.6,0,0,0-.1,1.6v2.9H208v4.3h3.6v10.7H216V409.7h3.6c.2-1.4.4-2.8.6-4.3H216v-3A1.718,1.718,0,0,1,217.9,400.7Z" transform="translate(-6649 2426.6)" fill="#31353f" fill-rule="evenodd"/>
  </g>
</svg>
