<svg xmlns="http://www.w3.org/2000/svg" width="24" height="24" viewBox="0 0 24 24">
  <g id="Group_3601" data-name="Group 3601" transform="translate(6529 -2823)">
    <rect id="Rectangle_1552" data-name="Rectangle 1552" width="24" height="24" transform="translate(-6529 2823)" fill="#fff" opacity="0"/>
    <path id="XMLID_1_" d="M83.2,406.6V411H89a5.043,5.043,0,0,1-2.1,3.3,6.683,6.683,0,0,1-3.1,1,4.454,4.454,0,0,1-2.3-.3,6.607,6.607,0,0,1-4.4-7.6,6.264,6.264,0,0,1,10.3-3.5l3.2-3.2a18.647,18.647,0,0,0-1.9-1.4,10.3,10.3,0,0,0-5.1-1.4h-1a5.663,5.663,0,0,0-1.8.3,10.623,10.623,0,0,0-5.8,3.7,10.193,10.193,0,0,0-2.4,6.2,9.253,9.253,0,0,0,.2,2.9,10.935,10.935,0,0,0,4.2,6.5,10.157,10.157,0,0,0,5.8,2,8.893,8.893,0,0,0,3.6-.4,9.26,9.26,0,0,0,5.3-3.5,11.777,11.777,0,0,0,1.9-9.1C90,406.6,86.6,406.6,83.2,406.6Z" transform="translate(-6600.561 2426.1)" fill="#31353f"/>
  </g>
</svg>
