<svg xmlns="http://www.w3.org/2000/svg" width="24" height="24" viewBox="0 0 24 24">
  <g id="Group_3598" data-name="Group 3598" transform="translate(6498 -2823)">
    <rect id="Rectangle_1553" data-name="Rectangle 1553" width="24" height="24" transform="translate(-6498 2823)" fill="#fff" opacity="0"/>
    <g id="Group_1300" data-name="Group 1300" transform="translate(-6633.88 2427.255)">
      <g id="XMLID_18_" transform="translate(136.8 398.715)">
        <path id="Path_455" data-name="Path 455" d="M143.608,412.954a4.733,4.733,0,0,1-4.267-3.177,5.015,5.015,0,0,0,2-.091h.091a4.711,4.711,0,0,1-3-2.088,4.5,4.5,0,0,1-.635-2.451,3.887,3.887,0,0,0,2,.545,4.66,4.66,0,0,1-1.906-2.814,4.505,4.505,0,0,1,.454-3.268,13.184,13.184,0,0,0,9.441,4.811c0-.182-.091-.363-.091-.545a4.864,4.864,0,0,1,.635-3,4.54,4.54,0,0,1,7.081-.817.333.333,0,0,0,.272.091,9.267,9.267,0,0,0,2.633-1h.091a4.139,4.139,0,0,1-2,2.451,8.177,8.177,0,0,0,2.542-.726h0c-.182.272-.363.454-.545.726a6.609,6.609,0,0,1-1.634,1.543c-.091,0-.091.091-.091.182a14.707,14.707,0,0,1-.091,2,12.479,12.479,0,0,1-1.18,4.085,14.2,14.2,0,0,1-2.451,3.631,11.335,11.335,0,0,1-6.264,3.45,13.586,13.586,0,0,1-9.8-1.725.089.089,0,0,1-.091-.091,8.548,8.548,0,0,0,4.539-.635A4.106,4.106,0,0,0,143.608,412.954Z" transform="translate(-136.8 -398.715)" fill="#31353f" fill-rule="evenodd"/>
      </g>
    </g>
  </g>
</svg>
