<svg xmlns="http://www.w3.org/2000/svg" width="24" height="24" viewBox="0 0 24 24">
  <g id="Group_3600" data-name="Group 3600" transform="translate(6407 -2823)">
    <rect id="Rectangle_1555" data-name="Rectangle 1555" width="24" height="24" transform="translate(-6407 2823)" fill="#fff" opacity="0"/>
    <g id="XMLID_4_" transform="translate(-6677.45 2427.6)">
      <path id="XMLID_7_" d="M272,403.9h4.5v14.3H272Zm2.3-7.1a2.6,2.6,0,1,1-2.6,2.6,2.582,2.582,0,0,1,2.6-2.6" fill="#31353f"/>
      <path id="XMLID_5_" d="M279.3,403.9h4.3v2h.1a4.791,4.791,0,0,1,4.2-2.3c4.5,0,5.3,3,5.3,6.8v7.9h-4.5v-7c0-1.7,0-3.8-2.3-3.8s-2.7,1.8-2.7,3.7v7.1h-4.5V403.9Z" fill="#31353f"/>
    </g>
  </g>
</svg>
