<svg xmlns="http://www.w3.org/2000/svg" width="24" height="24" viewBox="0 0 24 24">
  <g id="Group_2528" data-name="Group 2528" transform="translate(-1669 -471)">
    <g id="Rectangle_273" data-name="Rectangle 273" transform="translate(1669 471)" fill="#fff" stroke="#707070" stroke-width="1" opacity="0">
      <rect width="24" height="24" stroke="none"/>
      <rect x="0.5" y="0.5" width="23" height="23" fill="none"/>
    </g>
    <g id="Group_2527" data-name="Group 2527" transform="translate(1454.378 211.692)">
      <g id="Group_1060" data-name="Group 1060" transform="translate(214.622 260.403)">
        <g id="Group_2138" data-name="Group 2138">
          <path id="Path_291" data-name="Path 291" d="M176.723,187.533l2.832-8.474-7.331-5.156h9.007l2.721-8.619,2.716,8.61h8.927l.021.054-7.27,5.111,2.831,8.469-.039.035c-.085-.061-.171-.12-.255-.182q-3.364-2.489-6.725-4.982a.285.285,0,0,0-.414,0q-3.378,2.513-6.766,5.012c-.068.05-.137.1-.206.149Z" transform="translate(-172.224 -165.283)" fill="#ffb600"/>
        </g>
      </g>
    </g>
  </g>
</svg>
