<svg xmlns="http://www.w3.org/2000/svg" width="24" height="24" viewBox="0 0 24 24"><defs><style>.a{fill:#fff;opacity:0;}.b{fill:none;stroke:#ffb500;stroke-miterlimit:10;stroke-width:1.5px;}</style></defs><g transform="translate(0.218)"><rect class="a" width="24" height="24" transform="translate(-0.218)"/><g transform="translate(3.025 2.824)"><g transform="translate(0.757 -0.825)"><g transform="translate(3.905 1)"><path class="b" d="M1209.985,78.924a4.13,4.13,0,1,1-4.129-4.131A4.129,4.129,0,0,1,1209.985,78.924Z" transform="translate(-1201.725 -74.793)"/></g><path class="b" d="M1214.254,89.255h-14.09a1.022,1.022,0,0,1-1.021-1.023h0a5.467,5.467,0,0,1,5.468-5.468h5.2a5.467,5.467,0,0,1,5.468,5.468h0A1.022,1.022,0,0,1,1214.254,89.255Z" transform="translate(-1199.143 -70.707)"/></g></g></g></svg>