<svg id="Group_3096" data-name="Group 3096" xmlns="http://www.w3.org/2000/svg" width="48" height="48" viewBox="0 0 48 48">
  <g id="Path_755" data-name="Path 755" fill="#fff" opacity="0">
    <path d="M 47.5 47.5 L 0.5 47.5 L 0.5 0.4999980926513672 L 47.5 0.4999980926513672 L 47.5 47.5 Z" stroke="none"/>
    <path d="M 1 0.9999961853027344 L 1 47 L 47 47 L 47 0.9999961853027344 L 1 0.9999961853027344 M 0 -3.814697265625e-06 L 48 -3.814697265625e-06 L 48 48 L 0 48 L 0 -3.814697265625e-06 Z" stroke="none" fill="#707070"/>
  </g>
  <g id="ddhH2o.tif" transform="translate(1.4 4.2)">
    <g id="Group_2833" data-name="Group 2833">
      <path id="Path_737" data-name="Path 737" d="M109.442,255.881c0,1.234,0,2.394,0,3.554q0,4.721,0,9.442a2.656,2.656,0,0,1-2.725,2.794q-10.76,0-21.521,0a2.574,2.574,0,0,1-2.55-1.593,3.291,3.291,0,0,1-.224-1.291c-.016-4.071-.01-8.142-.01-12.213v-.647c-.157-.016-.285-.04-.413-.04-1.354,0-2.707-.007-4.06,0a4.676,4.676,0,0,1-4.885-4.873q-.024-7.287,0-14.573a4.7,4.7,0,0,1,4.721-4.746q10.1-.02,20.2-.006,7.943,0,15.886,0a4.687,4.687,0,0,1,4.852,3.929,25.336,25.336,0,0,1,.09,3.534c.007,3.934,0,7.868,0,11.8a4.7,4.7,0,0,1-4.879,4.933C112.457,255.878,110.987,255.881,109.442,255.881Zm.026-2.118c1.532,0,3,.007,4.473,0a2.621,2.621,0,0,0,2.779-2.831q.008-7.158,0-14.315a2.657,2.657,0,0,0-2.774-2.8l-6.445,0q-14.819,0-29.639,0a2.617,2.617,0,0,0-2.719,2.7q-.028,7.286,0,14.572a2.585,2.585,0,0,0,2.672,2.673c1.353.01,2.707,0,4.06,0,.164,0,.327-.018.5-.029v-6.27H79.315v-7.336h33.221V247.5h-3.068Zm-2.115-11.51H104.8a8.686,8.686,0,0,1-8.212,8.364,8.823,8.823,0,0,1-6.019-1.718,8.311,8.311,0,0,1-3.513-6.647H84.529c-.009.144-.023.26-.023.377q0,9.8,0,19.6c0,.942.073,1.014,1.017,1.014H106.38c.872,0,.973-.1.973-.958q0-7.542,0-15.084Zm-4.69,0H89.194a5.94,5.94,0,0,0,2.95,5.152,6.813,6.813,0,0,0,7.535.023A5.935,5.935,0,0,0,102.663,242.254ZM84.59,268.5c-.21.763-.02,1.031.731,1.031h21.213c.751,0,.941-.27.733-1.031ZM107.3,265.35H84.573c-.15.838-.006,1.022.774,1.022h21.146C107.285,266.372,107.417,266.215,107.3,265.35ZM81.432,242.245v3.069h.953v-3.069Zm29,3.091v-3.088h-.955v3.088Z" transform="translate(-73.045 -231.684)" fill="#b2b2b2"/>
      <path id="Path_738" data-name="Path 738" d="M206.3,457.044h1.887v5.744H206.3Z" transform="translate(-192.698 -433.523)" fill="#b2b2b2"/>
      <path id="Path_739" data-name="Path 739" d="M369.767,457.023h1.886v5.746h-1.886Z" transform="translate(-339.485 -433.504)" fill="#b2b2b2"/>
    </g>
  </g>
</svg>
