<svg xmlns="http://www.w3.org/2000/svg" width="191.206" height="164.933" viewBox="0 0 191.206 164.933"><defs><style>.a{fill:#f2f2f2;}.b{fill:#ffc32c;}.c,.d,.g{fill:#31353f;}.d{font-size:12px;}.d,.e,.f,.g{font-family:SourceSansPro-Semibold, Source Sans Pro;font-weight:600;}.e,.f{fill:#b2b2b2;}.e{font-size:14px;}.e,.f,.g{letter-spacing:-0.03em;}.f{font-size:15px;}.g{font-size:16px;}</style></defs><g transform="translate(0)"><path class="a" d="M989.741,337.05h0l-33.476,33.475h0a48.262,48.262,0,0,1,0,68.252h0l33.475,33.475.013-.013A95.6,95.6,0,0,0,989.741,337.05Z" transform="translate(-826.537 -309.048)"/><path class="a" d="M883.116,438.778h0a48.261,48.261,0,0,1,0-68.252L849.641,337.05l-.015.015a95.6,95.6,0,0,0,.014,135.188h0Z" transform="translate(-821.639 -309.048)"/><path class="b" d="M985.9,335.993a95.6,95.6,0,0,0-135.188-.014l-.015.014,33.475,33.475h0a48.261,48.261,0,0,1,68.252,0h0L985.9,335.993Z" transform="translate(-822.696 -307.992)"/><path class="c" d="M60.175,26.384,0,13.192H0L60.175,0C66.5,0,71.636,5.906,71.636,13.192h0C71.636,20.478,66.5,26.384,60.175,26.384Z" transform="matrix(-0.035, 0.999, -0.999, -0.035, 110.093, 37.586)"/></g><text class="d" transform="translate(83.869 161.933)"><tspan x="0" y="0">Risk</tspan></text><text class="e" transform="translate(18.273 99.291)"><tspan x="0" y="0">₹</tspan></text><text class="f" transform="translate(155.449 100.291)"><tspan x="0" y="0">₹₹₹</tspan></text><text class="g" transform="translate(88.905 31.111)"><tspan x="0" y="0">₹₹</tspan></text></svg>